<svg width="123" height="57" viewBox="0 0 123 57" fill="none" xmlns="http://www.w3.org/2000/svg">
<g clip-path="url(#clip0)">
<path d="M64.3599 11.0296C64.3513 10.0199 64.5498 9.01911 64.943 8.08837C65.3243 7.18762 65.8843 6.37275 66.5894 5.69257C67.2946 5.01239 68.1303 4.48088 69.0467 4.12988C71.0923 3.36312 73.3482 3.36312 75.3938 4.12988C76.3182 4.49987 77.1595 5.04907 77.8689 5.74559C78.5783 6.44211 79.1416 7.27206 79.526 8.18718C79.9104 9.10231 80.1083 10.0844 80.1082 11.0763C80.108 12.0682 79.9099 13.0502 79.5253 13.9653C79.1442 14.8573 78.5893 15.6653 77.8927 16.3426C77.1732 17.0306 76.3239 17.5699 75.3938 17.9293C73.3482 18.6961 71.0923 18.6961 69.0467 17.9293C68.1195 17.5662 67.2753 17.021 66.5644 16.326C65.8694 15.6497 65.318 14.8413 64.943 13.9487C64.552 13.025 64.3536 12.0319 64.3599 11.0296V11.0296ZM68.247 11.0296C68.2403 11.5663 68.3502 12.0981 68.5691 12.5887C68.7727 13.0545 69.0671 13.4754 69.4354 13.8271C69.8027 14.1784 70.2344 14.4562 70.707 14.6453C71.4361 14.9384 72.2343 15.0171 73.007 14.8721C73.7797 14.7271 74.4943 14.3644 75.0662 13.8271C75.4377 13.4759 75.7359 13.055 75.9436 12.5887C76.1559 12.0961 76.2654 11.5656 76.2654 11.0296C76.2654 10.4935 76.1559 9.96311 75.9436 9.47052C75.7359 9.00419 75.4377 8.58331 75.0662 8.23211C74.6953 7.87993 74.2598 7.60213 73.7834 7.41388C72.7955 7.02299 71.6949 7.02299 70.707 7.41388C69.7508 7.7934 68.9829 8.53212 68.5691 9.47052C68.3426 9.95935 68.2251 10.4912 68.2248 11.0296H68.247Z" fill="#287623"/>
<path d="M82.0518 18.1062V3.94739H85.7445L92.5748 12.6052V3.94739H96.2509V18.1062H92.5748L85.7445 9.44836V18.1062H82.0518Z" fill="#287623"/>
<path d="M107.463 7.06552H102.565V9.43177H107.218V12.5499H102.565V14.988H107.463V18.1062H98.8665V3.94739H107.463V7.06552Z" fill="#287623"/>
<path d="M65.6537 20.7488H71.1179C72.0583 20.743 72.9887 20.9411 73.8444 21.3293C74.6733 21.7088 75.426 22.2352 76.0657 22.8828C76.7037 23.5318 77.2125 24.2953 77.565 25.133C77.9224 25.9841 78.1064 26.8974 78.1064 27.8199C78.1064 28.7424 77.9224 29.6557 77.565 30.5068C77.217 31.3475 76.712 32.1148 76.0768 32.768C75.4413 33.422 74.6877 33.9509 73.8555 34.3271C72.9944 34.7169 72.0582 34.915 71.1123 34.9076H65.6426L65.6537 20.7488ZM69.352 31.806H70.1961C70.7837 31.8159 71.3679 31.7146 71.9175 31.5075C72.3942 31.3238 72.8273 31.0432 73.1892 30.6837C73.5374 30.326 73.8077 29.9007 73.9833 29.4342C74.1675 28.9255 74.2596 28.3883 74.2553 27.8475C74.2596 27.3076 74.1635 26.7715 73.9722 26.2663C73.7953 25.7976 73.5231 25.3703 73.1725 25.0113C72.8089 24.6501 72.374 24.3677 71.8953 24.1821C71.3533 23.9754 70.7764 23.874 70.1961 23.8835H69.352V31.806Z" fill="#287623"/>
<path d="M88.2991 32.4697H83.0181L82.1685 34.9299H78.2258L83.6401 20.749H87.6771L93.0913 34.9078H89.1487L88.2991 32.4697ZM87.3217 29.6722L85.6558 24.9618L83.9899 29.6722H87.3217Z" fill="#287623"/>
<path d="M96.8062 28.1295L91.6196 20.7709H96.0343L98.672 24.6409L101.299 20.7709H105.713L100.505 28.1295V34.9297H96.8062V28.1295Z" fill="#287623"/>
<path d="M64.6875 52.0352L67.0975 37.8765H70.757L73.6057 45.423L76.4377 37.8765H80.0972L82.5128 52.0352H78.8311L77.6039 43.8861L74.2498 52.0352H72.7783L69.5908 43.8861L68.3636 52.0352H64.6875Z" fill="#287623"/>
<path d="M83.2625 44.9534C83.245 43.465 83.6845 42.0068 84.522 40.7738C85.3596 39.5408 86.5553 38.5918 87.9492 38.0537C89.9962 37.2944 92.2494 37.2944 94.2964 38.0537C95.2288 38.4116 96.0802 38.9511 96.8008 39.6404C97.5078 40.3352 98.0692 41.1629 98.4523 42.0754C98.8355 42.9879 99.0328 43.9671 99.0328 44.9562C99.0328 45.9452 98.8355 46.9244 98.4523 47.8369C98.0692 48.7495 97.5078 49.5771 96.8008 50.2719C96.0802 50.9613 95.2288 51.5007 94.2964 51.8586C92.2494 52.6179 89.9962 52.6179 87.9492 51.8586C86.5575 51.3156 85.3643 50.3646 84.5274 49.1316C83.6905 47.8985 83.2494 46.4415 83.2625 44.9534V44.9534ZM87.1496 44.9534C87.1439 45.4895 87.2518 46.0207 87.4661 46.5125C87.675 46.9783 87.9709 47.4004 88.338 47.7564C88.7044 48.1075 89.1364 48.3836 89.6096 48.5691C90.0985 48.7649 90.6209 48.8644 91.1478 48.8621C91.6746 48.8633 92.1968 48.7638 92.686 48.5691C93.1645 48.3852 93.6018 48.1087 93.9725 47.7558C94.3433 47.4028 94.6402 46.9802 94.8461 46.5125C95.0549 46.0199 95.1624 45.4908 95.1624 44.9562C95.1624 44.4216 95.0549 43.8924 94.8461 43.3999C94.6402 42.9321 94.3433 42.5096 93.9725 42.1566C93.6018 41.8036 93.1645 41.5272 92.686 41.3432C92.1968 41.1485 91.6746 41.0491 91.1478 41.0502C90.6209 41.048 90.0985 41.1475 89.6096 41.3432C89.1364 41.5287 88.7044 41.8048 88.338 42.1559C87.9709 42.5119 87.675 42.934 87.4661 43.3999C87.2466 43.8886 87.1331 44.418 87.1329 44.9534H87.1496Z" fill="#287623"/>
<path d="M112.766 52.0353H108.162L104.636 46.5896V52.0353H100.938V37.8875H106.657C107.364 37.873 108.066 37.9912 108.729 38.2359C109.266 38.4307 109.754 38.7414 110.157 39.1456C110.56 39.5499 110.869 40.0378 111.061 40.5745C111.255 41.106 111.355 41.6673 111.355 42.233C111.399 43.1695 111.123 44.0931 110.572 44.8536C109.985 45.5616 109.168 46.0427 108.262 46.2136L112.766 52.0353ZM104.636 44.2067H105.33C105.92 44.2398 106.505 44.0806 106.996 43.7534C107.19 43.6002 107.345 43.4027 107.446 43.1775C107.548 42.9523 107.593 42.7061 107.579 42.4597C107.593 42.2126 107.547 41.9657 107.446 41.7397C107.344 41.5137 107.19 41.3151 106.996 41.1605C106.504 40.8352 105.92 40.678 105.33 40.7127H104.636V44.2067Z" fill="#287623"/>
<path d="M123 40.9891H118.136V43.3553H122.756V46.4735H118.136V48.9171H123V52.0352H114.437V37.8765H123V40.9891Z" fill="#287623"/>
<path d="M28.6314 8.43337e-06C22.732 -0.00451535 16.9761 1.81103 12.1555 5.1969C18.1401 6.95152 24.0192 9.04474 29.7642 11.4664C35.6282 14.0537 33.9235 21.3736 33.9235 21.3736C33.9235 21.3736 36.1447 20.3951 38.4825 17.2216C39.3994 15.9742 40.5067 14.8773 41.7644 13.9708C42.2253 13.5672 42.6751 13.1968 42.5751 13.1747C42.3353 13.1107 42.1153 12.9883 41.9349 12.8184C41.7546 12.6485 41.6196 12.4365 41.5422 12.2017C42.0162 12.3736 42.5228 12.4379 43.0249 12.3896L46.0013 12.163C46.5689 12.0767 47.1441 12.0507 47.7172 12.0856C49.4149 12.1896 51.0754 12.6254 52.6039 13.3682C52.6039 13.3682 49.9884 13.816 48.7723 14.7725C45.1295 17.6308 46.5011 21.8767 45.657 24.3757C45.1017 26.0674 44.5464 26.8083 43.3248 27.5878C42.7746 27.9711 42.1622 28.2573 41.5145 28.4337C50.2328 30.1862 48.5224 36.9311 46.6955 40.8399C45.4571 43.477 39.8597 50.9572 34.6231 56.4472C41.5477 54.9737 47.6794 51.0008 51.8367 45.2939C55.9939 39.587 57.8824 32.5502 57.1383 25.5394C56.3941 18.5287 53.0699 12.0403 47.8063 7.32462C42.5428 2.60896 35.7123 -0.000182081 28.6314 8.43337e-06V8.43337e-06Z" fill="#287623"/>
<path d="M37.7996 27.8863C37.9329 27.7923 30.2697 21.1635 30.2697 21.1635L30.5806 20.5443C30.5806 20.5443 31.8245 20.8539 32.0133 18.9963C32.2021 17.1387 31.458 15.2147 29.9587 15.2479C28.4594 15.281 27.1822 16.055 27.5653 17.3211C27.788 18.053 28.1113 18.7507 28.526 19.3943L27.9707 20.0135L17.7087 19.4607L25.9827 22.0536C25.4127 23.7006 25.0581 25.4138 24.9276 27.151C23.4505 26.8303 17.7087 25.4924 14.9322 23.2809C14.5396 23.0129 14.2133 22.6596 13.9776 22.2479C13.742 21.8361 13.6032 21.3765 13.5716 20.9036C13.5619 20.5064 13.6757 20.1158 13.8973 19.7853C14.119 19.4548 14.4377 19.2004 14.81 19.0571C17.3144 17.8076 22.2177 17.9127 22.2177 17.9071C22.2177 17.9016 9.02925 17.9071 9.52347 13.7551C9.80668 11.3778 14.4046 12.0523 17.5032 12.7876C14.1121 11.8325 10.7971 10.6277 7.58546 9.18298C2.94573 14.1649 0.254329 20.6382 0 27.4274C3.54119 29.3486 7.41119 30.5954 11.4115 31.1039C15.2987 31.5296 17.6587 31.3748 19.8966 30.7777C22.2178 30.153 24.1391 28.3894 24.8943 27.6098C24.8811 28.2331 24.9905 28.8529 25.2164 29.4343C26.327 31.9996 31.88 32.1986 31.88 32.1986L27.4376 37.213C25.5786 38.8163 23.4804 40.1219 21.2182 41.0831C14.5545 43.7645 8.75715 43.5765 3.76497 42.7417C6.11318 46.8132 9.43445 50.2449 13.4341 52.7321C17.4338 55.2193 21.9883 56.6853 26.6935 57C29.9587 52.1348 36.3058 45.9427 36.1337 45.6442C35.745 44.9918 30.4585 51.3 27.8041 48.3421C25.433 45.705 32.3687 41.1549 34.5844 38.7611C34.6033 38.7377 34.6133 38.7084 34.6126 38.6784C34.612 38.6484 34.6007 38.6196 34.5807 38.5971C34.5608 38.5746 34.5335 38.5598 34.5037 38.5554C34.4738 38.5511 34.4434 38.5573 34.4178 38.5731C32.3687 40.0548 28.8148 42.2164 27.7541 40.1709C27.5095 39.7551 27.3691 39.2868 27.3449 38.8056C27.3208 38.3244 27.4135 37.8445 27.6153 37.4066C28.9258 36.6547 31.6357 35.0735 32.5631 34.3824C34.229 33.155 35.7283 30.9823 33.918 29.9982C33.1184 29.5614 29.5589 28.9809 29.5589 28.9809L30.5584 24.7516C30.5584 24.7516 37.3942 28.1461 37.7996 27.8863Z" fill="#287623"/>
<path d="M48.5725 14.048C49.2666 13.6665 49.8275 13.6887 49.933 13.4952C49.933 13.4952 50.0107 13.368 48.9335 13.3182C47.9839 13.274 47.1398 13.473 46.7844 13.9817C46.429 14.4903 46.529 15.0155 46.7289 15.1316C47.1454 15.3528 47.9672 14.3853 48.5725 14.048Z" fill="#287623"/>
</g>
<defs>
<clipPath id="clip0">
<rect width="123" height="57" fill="white"/>
</clipPath>
</defs>
</svg>
