<svg width="331" height="175" viewBox="0 0 331 175" fill="none" xmlns="http://www.w3.org/2000/svg">
<path d="M89.0399 120.361L90.6214 118.62" stroke="#165E18" stroke-width="0.8828" stroke-miterlimit="10" stroke-linecap="round" stroke-linejoin="round"/>
<path d="M89.226 116.825L90.6214 118.62" stroke="#165E18" stroke-width="0.8828" stroke-miterlimit="10" stroke-linecap="round" stroke-linejoin="round"/>
<path d="M69.9021 127.473C71.1115 125.825 73.7164 122.728 78.1553 120.601C83.591 117.982 88.5881 118.367 90.6215 118.62" stroke="#165E18" stroke-width="0.8828" stroke-miterlimit="10" stroke-linecap="round" stroke-linejoin="round"/>
<path d="M179.971 120.015L178.39 118.274" stroke="#165E18" stroke-width="0.8828" stroke-miterlimit="10" stroke-linecap="round" stroke-linejoin="round"/>
<path d="M179.785 116.479L178.39 118.274" stroke="#165E18" stroke-width="0.8828" stroke-miterlimit="10" stroke-linecap="round" stroke-linejoin="round"/>
<path d="M199.109 127.141C197.9 125.493 195.295 122.395 190.856 120.268C185.42 117.649 180.423 118.035 178.39 118.287" stroke="#165E18" stroke-width="0.8828" stroke-miterlimit="10" stroke-linecap="round" stroke-linejoin="round"/>
<path d="M241.279 121.876H209.05V137.444H241.279V121.876Z" stroke="#165E18" stroke-width="0.8828" stroke-miterlimit="10"/>
<path d="M205.528 116.586H239.392V114.751H243.472C244.349 114.751 245.213 114.924 246.024 115.269L241.279 121.877L247.765 119.643V139.85L241.279 137.444L245.412 142.668H205.901L209.05 137.444L203.269 140.089V119.789L209.05 121.877L205.528 116.586Z" stroke="#165E18" stroke-width="0.8828" stroke-miterlimit="10" stroke-linecap="round" stroke-linejoin="round"/>
<path d="M207.256 119.191H243.06" stroke="#165E18" stroke-width="0.8828" stroke-miterlimit="10" stroke-linecap="round" stroke-linejoin="round"/>
<path d="M244.867 120.64V138.614" stroke="#165E18" stroke-width="0.8828" stroke-miterlimit="10" stroke-linecap="round" stroke-linejoin="round"/>
<path d="M243.272 139.969H207.641" stroke="#165E18" stroke-width="0.8828" stroke-miterlimit="10" stroke-linecap="round" stroke-linejoin="round"/>
<path d="M205.661 138.999V120.72" stroke="#165E18" stroke-width="0.8828" stroke-miterlimit="10" stroke-linecap="round" stroke-linejoin="round"/>
<path opacity="0.35" d="M52.6116 146.51L52.9837 165.108L69.9021 160.854L52.6116 146.51Z" fill="#165E18"/>
<path d="M44.3717 138.082L80.2418 160.735L85.651 137.883C86.9002 132.764 86.661 134.014 82.3948 133.589L45.7805 134.094L44.3717 138.082Z" fill="#165E18"/>
<path d="M141.922 115.243L167 103.305C168.568 102.561 170.429 103.225 171.173 104.794L173.3 109.274L142.56 123.911L140.433 119.431C139.689 117.849 140.353 115.987 141.922 115.243Z" stroke="#165E18" stroke-width="0.8828" stroke-miterlimit="10"/>
<path d="M149.085 107.094L155.81 103.89C156.621 103.504 157.591 103.85 157.989 104.661L159.119 107.041L149.444 111.64L148.314 109.261C147.929 108.45 148.274 107.479 149.085 107.094Z" stroke="#165E18" stroke-width="0.8828" stroke-miterlimit="10"/>
<path d="M147.676 174.294L173.884 174.268L176.875 124.376L142.839 124.416L145.31 164.829" stroke="#165E18" stroke-width="0.8828" stroke-miterlimit="10"/>
<path d="M147.982 174.308C150.8 174.308 153.085 172.022 153.085 169.203C153.085 166.384 150.8 164.098 147.982 164.098C145.163 164.098 142.878 166.384 142.878 169.203C142.878 172.022 145.163 174.308 147.982 174.308Z" stroke="#165E18" stroke-width="0.8828" stroke-miterlimit="10"/>
<path d="M127.635 115.243L102.556 103.305C100.988 102.561 99.1272 103.225 98.3829 104.794L96.2565 109.274L126.997 123.911L129.123 119.431C129.867 117.849 129.203 115.987 127.635 115.243Z" stroke="#165E18" stroke-width="0.8828" stroke-miterlimit="10"/>
<path d="M120.471 107.094L113.746 103.89C112.936 103.504 111.965 103.85 111.567 104.661L110.437 107.041L120.112 111.64L121.242 109.261C121.627 108.45 121.282 107.479 120.471 107.094Z" stroke="#165E18" stroke-width="0.8828" stroke-miterlimit="10"/>
<path d="M122.212 174.295L95.9907 174.321L92.9073 124.429L126.943 124.389L124.511 164.829" stroke="#165E18" stroke-width="0.8828" stroke-miterlimit="10"/>
<path d="M121.893 174.294C124.712 174.294 126.997 172.009 126.997 169.19C126.997 166.37 124.712 164.085 121.893 164.085C119.075 164.085 116.79 166.37 116.79 169.19C116.79 172.009 119.075 174.294 121.893 174.294Z" stroke="#165E18" stroke-width="0.8828" stroke-miterlimit="10"/>
<path d="M99.3731 145L99.9863 145.001L99.9876 143.696L100.91 143.697C101.638 143.698 102.053 143.195 102.053 142.603C102.054 142.011 101.646 141.507 100.912 141.507L99.3767 141.505L99.3731 145ZM101.425 142.602C101.424 142.938 101.172 143.158 100.827 143.157L99.9881 143.156L99.9892 142.045L100.828 142.046C101.174 142.047 101.425 142.267 101.425 142.602ZM102.561 145.004L104.715 145.006L104.716 144.466L103.175 144.464L103.178 141.509L102.565 141.508L102.561 145.004ZM107.742 145.009L108.413 145.009L107.043 141.513L106.278 141.512L104.902 145.006L105.573 145.007L105.83 144.336L107.486 144.338L107.742 145.009ZM106.66 142.031L107.314 143.798L106.003 143.796L106.66 142.031ZM108.519 144.517C108.827 144.847 109.294 145.073 109.938 145.074C110.881 145.075 111.291 144.577 111.291 143.996C111.292 143.236 110.606 143.057 110.029 142.91C109.616 142.804 109.259 142.715 109.26 142.442C109.26 142.18 109.491 142.008 109.852 142.008C110.219 142.008 110.591 142.135 110.863 142.407L111.215 141.952C110.89 141.637 110.45 141.464 109.905 141.463C109.14 141.462 108.631 141.907 108.631 142.484C108.63 143.223 109.301 143.391 109.872 143.533C110.296 143.644 110.668 143.738 110.668 144.053C110.667 144.283 110.468 144.529 109.965 144.529C109.478 144.528 109.1 144.303 108.86 144.046L108.519 144.517ZM112.637 145.014L113.25 145.014L113.253 142.059L114.312 142.06L114.312 141.52L111.582 141.517L111.581 142.057L112.64 142.058L112.637 145.014ZM114.828 145.016L115.441 145.016L115.445 141.521L114.832 141.52L114.828 145.016ZM117.835 145.082C118.569 145.082 118.999 144.716 119.266 144.297L118.743 144.029C118.575 144.323 118.239 144.537 117.836 144.537C117.17 144.536 116.657 144.006 116.658 143.273C116.659 142.539 117.173 142.01 117.838 142.011C118.242 142.011 118.577 142.232 118.744 142.52L119.269 142.253C119.007 141.834 118.572 141.467 117.839 141.466C116.833 141.465 116.03 142.198 116.029 143.272C116.028 144.346 116.829 145.081 117.835 145.082Z" fill="#165E18"/>
<path d="M152.373 144.862L152.986 144.863L152.988 143.558L153.91 143.559C154.638 143.559 155.053 143.057 155.053 142.465C155.054 141.872 154.646 141.369 153.912 141.368L152.377 141.367L152.373 144.862ZM154.425 142.464C154.424 142.799 154.172 143.019 153.827 143.019L152.988 143.018L152.989 141.907L153.828 141.908C154.174 141.908 154.425 142.129 154.425 142.464ZM157.641 144.867L158.312 144.868L156.942 141.371L156.177 141.37L154.8 144.864L155.471 144.865L155.729 144.195L157.385 144.196L157.641 144.867ZM156.559 141.89L157.212 143.656L155.902 143.655L156.559 141.89ZM158.693 144.868L159.306 144.869L159.308 143.564L160.23 143.565C160.959 143.566 161.373 143.063 161.374 142.471C161.374 141.879 160.966 141.375 160.232 141.374L158.697 141.373L158.693 144.868ZM160.745 142.47C160.744 142.806 160.493 143.025 160.147 143.025L159.308 143.024L159.309 141.913L160.148 141.914C160.494 141.914 160.745 142.135 160.745 142.47ZM161.882 144.871L164.276 144.874L164.277 144.334L162.495 144.332L162.496 143.363L164.241 143.365L164.242 142.825L162.497 142.823L162.498 141.916L164.279 141.918L164.28 141.379L161.885 141.376L161.882 144.871ZM166.903 144.876L167.61 144.877L166.757 143.503C167.177 143.436 167.586 143.101 167.586 142.477C167.587 141.832 167.137 141.381 166.445 141.381L164.91 141.379L164.906 144.874L165.519 144.875L165.521 143.57L166.128 143.571L166.903 144.876ZM166.957 142.476C166.957 142.812 166.705 143.032 166.36 143.031L165.521 143.03L165.522 141.92L166.361 141.92C166.707 141.921 166.958 142.141 166.957 142.476Z" fill="#165E18"/>
<path d="M56.2984 124.887C61.4211 123.891 64.7663 118.929 63.77 113.805C62.7738 108.681 57.8134 105.335 52.6907 106.331C47.568 107.328 44.2229 112.289 45.2192 117.414C46.2154 122.538 51.1758 125.884 56.2984 124.887Z" stroke="#165E18" stroke-width="0.8828"/>
<path d="M52.0512 118.388C52.5085 119.259 53.4088 119.96 54.6091 119.96C56.2525 119.96 57.1814 118.816 57.1814 117.187C57.1814 116.015 56.5097 115.044 55.6237 114.858C56.5097 114.629 57.067 113.658 57.067 112.672C57.067 110.9 56.0239 110.114 54.6091 110.114C53.6088 110.114 52.6943 110.642 52.1655 111.657L53.1658 112.443C53.4516 111.843 53.9232 111.443 54.5377 111.443C55.2236 111.443 55.5952 111.886 55.5952 112.886C55.5952 113.801 55.1236 114.258 54.4234 114.258C54.3091 114.258 54.0375 114.258 53.9232 114.244V115.601C54.0518 115.573 54.2805 115.573 54.4805 115.573C55.0093 115.573 55.6952 115.887 55.6952 117.087C55.6952 117.988 55.4094 118.631 54.5377 118.631C53.8661 118.631 53.4088 118.159 53.0944 117.53L52.0512 118.388Z" fill="#165E18"/>
<path d="M197.337 152.224C197.691 152.602 198.225 152.86 198.963 152.86C200.043 152.86 200.511 152.29 200.511 151.624C200.511 150.754 199.725 150.55 199.065 150.382C198.591 150.262 198.183 150.16 198.183 149.848C198.183 149.548 198.447 149.35 198.861 149.35C199.281 149.35 199.707 149.494 200.019 149.806L200.421 149.284C200.049 148.924 199.545 148.726 198.921 148.726C198.045 148.726 197.463 149.236 197.463 149.896C197.463 150.742 198.231 150.934 198.885 151.096C199.371 151.222 199.797 151.33 199.797 151.69C199.797 151.954 199.569 152.236 198.993 152.236C198.435 152.236 198.003 151.978 197.727 151.684L197.337 152.224ZM200.96 151.336C200.96 152.254 201.608 152.86 202.478 152.86C202.94 152.86 203.366 152.716 203.654 152.44L203.366 152.026C203.162 152.23 202.826 152.344 202.544 152.344C201.998 152.344 201.668 151.984 201.62 151.546H203.858V151.396C203.858 150.484 203.3 149.818 202.43 149.818C201.572 149.818 200.96 150.496 200.96 151.336ZM202.43 150.334C203 150.334 203.234 150.76 203.246 151.102H201.614C201.644 150.748 201.89 150.334 202.43 150.334ZM205.11 153.892V152.386C205.344 152.698 205.674 152.86 206.04 152.86C206.79 152.86 207.324 152.29 207.324 151.336C207.324 150.382 206.79 149.818 206.04 149.818C205.662 149.818 205.326 149.998 205.11 150.286V149.89H204.48V153.892H205.11ZM206.67 151.336C206.67 151.9 206.352 152.302 205.854 152.302C205.56 152.302 205.248 152.122 205.11 151.912V150.766C205.248 150.55 205.56 150.376 205.854 150.376C206.352 150.376 206.67 150.778 206.67 151.336ZM209.73 152.788H210.36V150.868C210.36 150.088 209.796 149.818 209.154 149.818C208.692 149.818 208.272 149.968 207.936 150.286L208.194 150.724C208.446 150.478 208.728 150.358 209.052 150.358C209.454 150.358 209.73 150.562 209.73 150.898V151.33C209.52 151.084 209.184 150.958 208.794 150.958C208.32 150.958 207.786 151.234 207.786 151.9C207.786 152.542 208.32 152.86 208.794 152.86C209.178 152.86 209.514 152.722 209.73 152.476V152.788ZM209.73 152.128C209.586 152.326 209.316 152.428 209.04 152.428C208.686 152.428 208.422 152.224 208.422 151.912C208.422 151.594 208.686 151.39 209.04 151.39C209.316 151.39 209.586 151.492 209.73 151.69V152.128ZM211.177 152.788H211.807V150.814C211.933 150.61 212.287 150.43 212.551 150.43C212.629 150.43 212.695 150.436 212.749 150.448V149.824C212.371 149.824 212.023 150.04 211.807 150.316V149.89H211.177V152.788ZM215.027 152.788H215.657V150.868C215.657 150.088 215.093 149.818 214.451 149.818C213.989 149.818 213.569 149.968 213.233 150.286L213.491 150.724C213.743 150.478 214.025 150.358 214.349 150.358C214.751 150.358 215.027 150.562 215.027 150.898V151.33C214.817 151.084 214.481 150.958 214.091 150.958C213.617 150.958 213.083 151.234 213.083 151.9C213.083 152.542 213.617 152.86 214.091 152.86C214.475 152.86 214.811 152.722 215.027 152.476V152.788ZM215.027 152.128C214.883 152.326 214.613 152.428 214.337 152.428C213.983 152.428 213.719 152.224 213.719 151.912C213.719 151.594 213.983 151.39 214.337 151.39C214.613 151.39 214.883 151.492 215.027 151.69V152.128ZM217.344 152.86C217.638 152.86 217.824 152.782 217.938 152.674L217.788 152.2C217.74 152.254 217.626 152.302 217.506 152.302C217.326 152.302 217.23 152.158 217.23 151.96V150.442H217.818V149.89H217.23V149.098H216.6V149.89H216.12V150.442H216.6V152.116C216.6 152.596 216.858 152.86 217.344 152.86ZM218.21 151.336C218.21 152.254 218.858 152.86 219.728 152.86C220.19 152.86 220.616 152.716 220.904 152.44L220.616 152.026C220.412 152.23 220.076 152.344 219.794 152.344C219.248 152.344 218.918 151.984 218.87 151.546H221.108V151.396C221.108 150.484 220.55 149.818 219.68 149.818C218.822 149.818 218.21 150.496 218.21 151.336ZM219.68 150.334C220.25 150.334 220.484 150.76 220.496 151.102H218.864C218.894 150.748 219.14 150.334 219.68 150.334ZM224.141 152.86C224.435 152.86 224.621 152.782 224.735 152.674L224.585 152.2C224.537 152.254 224.423 152.302 224.303 152.302C224.123 152.302 224.027 152.158 224.027 151.96V150.442H224.615V149.89H224.027V149.098H223.397V149.89H222.917V150.442H223.397V152.116C223.397 152.596 223.655 152.86 224.141 152.86ZM226.495 152.86C227.425 152.86 227.989 152.17 227.989 151.336C227.989 150.508 227.425 149.818 226.495 149.818C225.577 149.818 225.007 150.508 225.007 151.336C225.007 152.17 225.577 152.86 226.495 152.86ZM226.495 152.302C225.961 152.302 225.661 151.852 225.661 151.336C225.661 150.826 225.961 150.376 226.495 150.376C227.035 150.376 227.335 150.826 227.335 151.336C227.335 151.852 227.035 152.302 226.495 152.302ZM230.317 152.788H230.947V150.442H231.535V149.89H230.947V149.728C230.947 149.404 231.103 149.242 231.349 149.242C231.439 149.242 231.529 149.26 231.601 149.302L231.739 148.84C231.613 148.768 231.433 148.726 231.235 148.726C230.701 148.726 230.317 149.08 230.317 149.728V149.89H229.837V150.442H230.317V152.788ZM233.783 152.788H234.413V150.868C234.413 150.088 233.849 149.818 233.207 149.818C232.745 149.818 232.325 149.968 231.989 150.286L232.247 150.724C232.499 150.478 232.781 150.358 233.105 150.358C233.507 150.358 233.783 150.562 233.783 150.898V151.33C233.573 151.084 233.237 150.958 232.847 150.958C232.373 150.958 231.839 151.234 231.839 151.9C231.839 152.542 232.373 152.86 232.847 152.86C233.231 152.86 233.567 152.722 233.783 152.476V152.788ZM233.783 152.128C233.639 152.326 233.369 152.428 233.093 152.428C232.739 152.428 232.475 152.224 232.475 151.912C232.475 151.594 232.739 151.39 233.093 151.39C233.369 151.39 233.639 151.492 233.783 151.69V152.128ZM235.05 151.336C235.05 152.218 235.668 152.86 236.55 152.86C237.114 152.86 237.456 152.62 237.66 152.344L237.246 151.96C237.084 152.182 236.862 152.302 236.58 152.302C236.052 152.302 235.704 151.9 235.704 151.336C235.704 150.772 236.052 150.376 236.58 150.376C236.862 150.376 237.084 150.49 237.246 150.718L237.66 150.334C237.456 150.058 237.114 149.818 236.55 149.818C235.668 149.818 235.05 150.46 235.05 151.336ZM238.524 149.41C238.74 149.41 238.914 149.236 238.914 149.02C238.914 148.804 238.74 148.63 238.524 148.63C238.314 148.63 238.134 148.804 238.134 149.02C238.134 149.236 238.314 149.41 238.524 149.41ZM238.212 152.788H238.842V149.89H238.212V152.788ZM239.659 152.788H240.289V148.786H239.659V152.788ZM241.418 149.41C241.634 149.41 241.808 149.236 241.808 149.02C241.808 148.804 241.634 148.63 241.418 148.63C241.208 148.63 241.028 148.804 241.028 149.02C241.028 149.236 241.208 149.41 241.418 149.41ZM241.106 152.788H241.736V149.89H241.106V152.788ZM243.424 152.86C243.718 152.86 243.904 152.782 244.018 152.674L243.868 152.2C243.82 152.254 243.706 152.302 243.586 152.302C243.406 152.302 243.31 152.158 243.31 151.96V150.442H243.898V149.89H243.31V149.098H242.68V149.89H242.2V150.442H242.68V152.116C242.68 152.596 242.938 152.86 243.424 152.86ZM246.24 152.788H246.87V150.868C246.87 150.088 246.306 149.818 245.664 149.818C245.202 149.818 244.782 149.968 244.446 150.286L244.704 150.724C244.956 150.478 245.238 150.358 245.562 150.358C245.964 150.358 246.24 150.562 246.24 150.898V151.33C246.03 151.084 245.694 150.958 245.304 150.958C244.83 150.958 244.296 151.234 244.296 151.9C244.296 152.542 244.83 152.86 245.304 152.86C245.688 152.86 246.024 152.722 246.24 152.476V152.788ZM246.24 152.128C246.096 152.326 245.826 152.428 245.55 152.428C245.196 152.428 244.932 152.224 244.932 151.912C244.932 151.594 245.196 151.39 245.55 151.39C245.826 151.39 246.096 151.492 246.24 151.69V152.128ZM248.557 152.86C248.851 152.86 249.037 152.782 249.151 152.674L249.001 152.2C248.953 152.254 248.839 152.302 248.719 152.302C248.539 152.302 248.443 152.158 248.443 151.96V150.442H249.031V149.89H248.443V149.098H247.813V149.89H247.333V150.442H247.813V152.116C247.813 152.596 248.071 152.86 248.557 152.86ZM249.423 151.336C249.423 152.254 250.071 152.86 250.941 152.86C251.403 152.86 251.829 152.716 252.117 152.44L251.829 152.026C251.625 152.23 251.289 152.344 251.007 152.344C250.461 152.344 250.131 151.984 250.083 151.546H252.321V151.396C252.321 150.484 251.763 149.818 250.893 149.818C250.035 149.818 249.423 150.496 249.423 151.336ZM250.893 150.334C251.463 150.334 251.697 150.76 251.709 151.102H250.077C250.107 150.748 250.353 150.334 250.893 150.334ZM200.103 159.788H200.763L201.663 156.89H201.009L200.397 158.996L199.707 156.89H199.155L198.465 158.996L197.853 156.89H197.199L198.099 159.788H198.759L199.431 157.664L200.103 159.788ZM203.871 159.788H204.501V157.868C204.501 157.088 203.937 156.818 203.295 156.818C202.833 156.818 202.413 156.968 202.077 157.286L202.335 157.724C202.587 157.478 202.869 157.358 203.193 157.358C203.595 157.358 203.871 157.562 203.871 157.898V158.33C203.661 158.084 203.325 157.958 202.935 157.958C202.461 157.958 201.927 158.234 201.927 158.9C201.927 159.542 202.461 159.86 202.935 159.86C203.319 159.86 203.655 159.722 203.871 159.476V159.788ZM203.871 159.128C203.727 159.326 203.457 159.428 203.181 159.428C202.827 159.428 202.563 159.224 202.563 158.912C202.563 158.594 202.827 158.39 203.181 158.39C203.457 158.39 203.727 158.492 203.871 158.69V159.128ZM205.065 159.41C205.365 159.704 205.815 159.86 206.307 159.86C207.087 159.86 207.513 159.47 207.513 158.96C207.513 158.276 206.895 158.132 206.391 158.024C206.049 157.946 205.761 157.868 205.761 157.646C205.761 157.442 205.971 157.322 206.301 157.322C206.661 157.322 206.985 157.472 207.159 157.67L207.423 157.226C207.159 156.992 206.787 156.818 206.295 156.818C205.563 156.818 205.155 157.226 205.155 157.7C205.155 158.348 205.749 158.48 206.247 158.588C206.601 158.666 206.907 158.756 206.907 159.008C206.907 159.224 206.715 159.362 206.337 159.362C205.959 159.362 205.557 159.164 205.353 158.954L205.065 159.41ZM209.018 159.86C209.312 159.86 209.498 159.782 209.612 159.674L209.462 159.2C209.414 159.254 209.3 159.302 209.18 159.302C209 159.302 208.904 159.158 208.904 158.96V157.442H209.492V156.89H208.904V156.098H208.274V156.89H207.794V157.442H208.274V159.116C208.274 159.596 208.532 159.86 209.018 159.86ZM209.884 158.336C209.884 159.254 210.532 159.86 211.402 159.86C211.864 159.86 212.29 159.716 212.578 159.44L212.29 159.026C212.086 159.23 211.75 159.344 211.468 159.344C210.922 159.344 210.592 158.984 210.544 158.546H212.782V158.396C212.782 157.484 212.224 156.818 211.354 156.818C210.496 156.818 209.884 157.496 209.884 158.336ZM211.354 157.334C211.924 157.334 212.158 157.76 212.17 158.102H210.538C210.568 157.748 210.814 157.334 211.354 157.334ZM214.692 159.41C214.992 159.704 215.442 159.86 215.934 159.86C216.714 159.86 217.14 159.47 217.14 158.96C217.14 158.276 216.522 158.132 216.018 158.024C215.676 157.946 215.388 157.868 215.388 157.646C215.388 157.442 215.598 157.322 215.928 157.322C216.288 157.322 216.612 157.472 216.786 157.67L217.05 157.226C216.786 156.992 216.414 156.818 215.922 156.818C215.19 156.818 214.782 157.226 214.782 157.7C214.782 158.348 215.376 158.48 215.874 158.588C216.228 158.666 216.534 158.756 216.534 159.008C216.534 159.224 216.342 159.362 215.964 159.362C215.586 159.362 215.184 159.164 214.98 158.954L214.692 159.41ZM217.594 158.336C217.594 159.254 218.242 159.86 219.112 159.86C219.574 159.86 220 159.716 220.288 159.44L220 159.026C219.796 159.23 219.46 159.344 219.178 159.344C218.632 159.344 218.302 158.984 218.254 158.546H220.492V158.396C220.492 157.484 219.934 156.818 219.064 156.818C218.206 156.818 217.594 157.496 217.594 158.336ZM219.064 157.334C219.634 157.334 219.868 157.76 219.88 158.102H218.248C218.278 157.748 218.524 157.334 219.064 157.334ZM221.078 160.532C221.432 160.856 221.798 160.964 222.29 160.964C223.004 160.964 223.778 160.682 223.778 159.638V156.89H223.148V157.292C222.914 156.986 222.584 156.818 222.218 156.818C221.474 156.818 220.934 157.37 220.934 158.306C220.934 159.26 221.48 159.794 222.218 159.794C222.596 159.794 222.926 159.602 223.148 159.314V159.662C223.148 160.256 222.704 160.448 222.29 160.448C221.906 160.448 221.606 160.346 221.372 160.076L221.078 160.532ZM223.148 158.846C223.01 159.062 222.698 159.236 222.404 159.236C221.906 159.236 221.588 158.864 221.588 158.306C221.588 157.748 221.906 157.376 222.404 157.376C222.698 157.376 223.01 157.55 223.148 157.766V158.846ZM224.595 159.788H225.225V157.814C225.351 157.61 225.705 157.43 225.969 157.43C226.047 157.43 226.113 157.436 226.167 157.448V156.824C225.789 156.824 225.441 157.04 225.225 157.316V156.89H224.595V159.788ZM226.495 158.336C226.495 159.254 227.143 159.86 228.013 159.86C228.475 159.86 228.901 159.716 229.189 159.44L228.901 159.026C228.697 159.23 228.361 159.344 228.079 159.344C227.533 159.344 227.203 158.984 227.155 158.546H229.393V158.396C229.393 157.484 228.835 156.818 227.965 156.818C227.107 156.818 226.495 157.496 226.495 158.336ZM227.965 157.334C228.535 157.334 228.769 157.76 228.781 158.102H227.149C227.179 157.748 227.425 157.334 227.965 157.334ZM229.979 160.532C230.333 160.856 230.699 160.964 231.191 160.964C231.905 160.964 232.679 160.682 232.679 159.638V156.89H232.049V157.292C231.815 156.986 231.485 156.818 231.119 156.818C230.375 156.818 229.835 157.37 229.835 158.306C229.835 159.26 230.381 159.794 231.119 159.794C231.497 159.794 231.827 159.602 232.049 159.314V159.662C232.049 160.256 231.605 160.448 231.191 160.448C230.807 160.448 230.507 160.346 230.273 160.076L229.979 160.532ZM232.049 158.846C231.911 159.062 231.599 159.236 231.305 159.236C230.807 159.236 230.489 158.864 230.489 158.306C230.489 157.748 230.807 157.376 231.305 157.376C231.599 157.376 231.911 157.55 232.049 157.766V158.846ZM235.265 159.788H235.895V157.868C235.895 157.088 235.331 156.818 234.689 156.818C234.227 156.818 233.807 156.968 233.471 157.286L233.729 157.724C233.981 157.478 234.263 157.358 234.587 157.358C234.989 157.358 235.265 157.562 235.265 157.898V158.33C235.055 158.084 234.719 157.958 234.329 157.958C233.855 157.958 233.321 158.234 233.321 158.9C233.321 159.542 233.855 159.86 234.329 159.86C234.713 159.86 235.049 159.722 235.265 159.476V159.788ZM235.265 159.128C235.121 159.326 234.851 159.428 234.575 159.428C234.221 159.428 233.957 159.224 233.957 158.912C233.957 158.594 234.221 158.39 234.575 158.39C234.851 158.39 235.121 158.492 235.265 158.69V159.128ZM237.582 159.86C237.876 159.86 238.062 159.782 238.176 159.674L238.026 159.2C237.978 159.254 237.864 159.302 237.744 159.302C237.564 159.302 237.468 159.158 237.468 158.96V157.442H238.056V156.89H237.468V156.098H236.838V156.89H236.358V157.442H236.838V159.116C236.838 159.596 237.096 159.86 237.582 159.86ZM238.94 156.41C239.156 156.41 239.33 156.236 239.33 156.02C239.33 155.804 239.156 155.63 238.94 155.63C238.73 155.63 238.55 155.804 238.55 156.02C238.55 156.236 238.73 156.41 238.94 156.41ZM238.628 159.788H239.258V156.89H238.628V159.788ZM241.383 159.86C242.313 159.86 242.877 159.17 242.877 158.336C242.877 157.508 242.313 156.818 241.383 156.818C240.465 156.818 239.895 157.508 239.895 158.336C239.895 159.17 240.465 159.86 241.383 159.86ZM241.383 159.302C240.849 159.302 240.549 158.852 240.549 158.336C240.549 157.826 240.849 157.376 241.383 157.376C241.923 157.376 242.223 157.826 242.223 158.336C242.223 158.852 241.923 159.302 241.383 159.302ZM245.471 159.788H246.101V157.748C246.101 157.154 245.789 156.818 245.165 156.818C244.709 156.818 244.337 157.058 244.145 157.286V156.89H243.515V159.788H244.145V157.766C244.289 157.568 244.565 157.376 244.889 157.376C245.243 157.376 245.471 157.526 245.471 157.976V159.788ZM199.347 166.788H199.977V164.868C199.977 164.088 199.413 163.818 198.771 163.818C198.309 163.818 197.889 163.968 197.553 164.286L197.811 164.724C198.063 164.478 198.345 164.358 198.669 164.358C199.071 164.358 199.347 164.562 199.347 164.898V165.33C199.137 165.084 198.801 164.958 198.411 164.958C197.937 164.958 197.403 165.234 197.403 165.9C197.403 166.542 197.937 166.86 198.411 166.86C198.795 166.86 199.131 166.722 199.347 166.476V166.788ZM199.347 166.128C199.203 166.326 198.933 166.428 198.657 166.428C198.303 166.428 198.039 166.224 198.039 165.912C198.039 165.594 198.303 165.39 198.657 165.39C198.933 165.39 199.203 165.492 199.347 165.69V166.128ZM200.614 165.336C200.614 166.218 201.232 166.86 202.114 166.86C202.678 166.86 203.02 166.62 203.224 166.344L202.81 165.96C202.648 166.182 202.426 166.302 202.144 166.302C201.616 166.302 201.268 165.9 201.268 165.336C201.268 164.772 201.616 164.376 202.144 164.376C202.426 164.376 202.648 164.49 202.81 164.718L203.224 164.334C203.02 164.058 202.678 163.818 202.114 163.818C201.232 163.818 200.614 164.46 200.614 165.336ZM203.596 165.336C203.596 166.218 204.214 166.86 205.096 166.86C205.66 166.86 206.002 166.62 206.206 166.344L205.792 165.96C205.63 166.182 205.408 166.302 205.126 166.302C204.598 166.302 204.25 165.9 204.25 165.336C204.25 164.772 204.598 164.376 205.126 164.376C205.408 164.376 205.63 164.49 205.792 164.718L206.206 164.334C206.002 164.058 205.66 163.818 205.096 163.818C204.214 163.818 203.596 164.46 203.596 165.336ZM208.067 166.86C208.997 166.86 209.561 166.17 209.561 165.336C209.561 164.508 208.997 163.818 208.067 163.818C207.149 163.818 206.579 164.508 206.579 165.336C206.579 166.17 207.149 166.86 208.067 166.86ZM208.067 166.302C207.533 166.302 207.233 165.852 207.233 165.336C207.233 164.826 207.533 164.376 208.067 164.376C208.607 164.376 208.907 164.826 208.907 165.336C208.907 165.852 208.607 166.302 208.067 166.302ZM210.198 166.788H210.828V164.814C210.954 164.61 211.308 164.43 211.572 164.43C211.65 164.43 211.716 164.436 211.77 164.448V163.824C211.392 163.824 211.044 164.04 210.828 164.316V163.89H210.198V166.788ZM214.318 166.788H214.948V162.786H214.318V164.292C214.084 163.986 213.748 163.818 213.388 163.818C212.638 163.818 212.098 164.406 212.098 165.342C212.098 166.296 212.644 166.86 213.388 166.86C213.76 166.86 214.096 166.68 214.318 166.392V166.788ZM214.318 165.918C214.174 166.134 213.868 166.302 213.568 166.302C213.07 166.302 212.752 165.9 212.752 165.342C212.752 164.778 213.07 164.376 213.568 164.376C213.868 164.376 214.174 164.55 214.318 164.766V165.918ZM216.077 163.41C216.293 163.41 216.467 163.236 216.467 163.02C216.467 162.804 216.293 162.63 216.077 162.63C215.867 162.63 215.687 162.804 215.687 163.02C215.687 163.236 215.867 163.41 216.077 163.41ZM215.765 166.788H216.395V163.89H215.765V166.788ZM219.168 166.788H219.798V164.748C219.798 164.154 219.486 163.818 218.862 163.818C218.406 163.818 218.034 164.058 217.842 164.286V163.89H217.212V166.788H217.842V164.766C217.986 164.568 218.262 164.376 218.586 164.376C218.94 164.376 219.168 164.526 219.168 164.976V166.788ZM220.58 167.532C220.934 167.856 221.3 167.964 221.792 167.964C222.506 167.964 223.28 167.682 223.28 166.638V163.89H222.65V164.292C222.416 163.986 222.086 163.818 221.72 163.818C220.976 163.818 220.436 164.37 220.436 165.306C220.436 166.26 220.982 166.794 221.72 166.794C222.098 166.794 222.428 166.602 222.65 166.314V166.662C222.65 167.256 222.206 167.448 221.792 167.448C221.408 167.448 221.108 167.346 220.874 167.076L220.58 167.532ZM222.65 165.846C222.512 166.062 222.2 166.236 221.906 166.236C221.408 166.236 221.09 165.864 221.09 165.306C221.09 164.748 221.408 164.376 221.906 164.376C222.2 164.376 222.512 164.55 222.65 164.766V165.846ZM226.508 166.86C226.802 166.86 226.988 166.782 227.102 166.674L226.952 166.2C226.904 166.254 226.79 166.302 226.67 166.302C226.49 166.302 226.394 166.158 226.394 165.96V164.442H226.982V163.89H226.394V163.098H225.764V163.89H225.284V164.442H225.764V166.116C225.764 166.596 226.022 166.86 226.508 166.86ZM228.862 166.86C229.792 166.86 230.356 166.17 230.356 165.336C230.356 164.508 229.792 163.818 228.862 163.818C227.944 163.818 227.374 164.508 227.374 165.336C227.374 166.17 227.944 166.86 228.862 166.86ZM228.862 166.302C228.328 166.302 228.028 165.852 228.028 165.336C228.028 164.826 228.328 164.376 228.862 164.376C229.402 164.376 229.702 164.826 229.702 165.336C229.702 165.852 229.402 166.302 228.862 166.302ZM232.534 166.788H233.164V162.786H232.534V166.788ZM235.289 166.86C236.219 166.86 236.783 166.17 236.783 165.336C236.783 164.508 236.219 163.818 235.289 163.818C234.371 163.818 233.801 164.508 233.801 165.336C233.801 166.17 234.371 166.86 235.289 166.86ZM235.289 166.302C234.755 166.302 234.455 165.852 234.455 165.336C234.455 164.826 234.755 164.376 235.289 164.376C235.829 164.376 236.129 164.826 236.129 165.336C236.129 165.852 235.829 166.302 235.289 166.302ZM237.241 165.336C237.241 166.218 237.859 166.86 238.741 166.86C239.305 166.86 239.647 166.62 239.851 166.344L239.437 165.96C239.275 166.182 239.053 166.302 238.771 166.302C238.243 166.302 237.895 165.9 237.895 165.336C237.895 164.772 238.243 164.376 238.771 164.376C239.053 164.376 239.275 164.49 239.437 164.718L239.851 164.334C239.647 164.058 239.305 163.818 238.741 163.818C237.859 163.818 237.241 164.46 237.241 165.336ZM242.173 166.788H242.803V164.868C242.803 164.088 242.239 163.818 241.597 163.818C241.135 163.818 240.715 163.968 240.379 164.286L240.637 164.724C240.889 164.478 241.171 164.358 241.495 164.358C241.897 164.358 242.173 164.562 242.173 164.898V165.33C241.963 165.084 241.627 164.958 241.237 164.958C240.763 164.958 240.229 165.234 240.229 165.9C240.229 166.542 240.763 166.86 241.237 166.86C241.621 166.86 241.957 166.722 242.173 166.476V166.788ZM242.173 166.128C242.029 166.326 241.759 166.428 241.483 166.428C241.129 166.428 240.865 166.224 240.865 165.912C240.865 165.594 241.129 165.39 241.483 165.39C241.759 165.39 242.029 165.492 242.173 165.69V166.128ZM243.62 166.788H244.25V162.786H243.62V166.788ZM246.608 166.788H247.238V164.814C247.364 164.61 247.718 164.43 247.982 164.43C248.06 164.43 248.126 164.436 248.18 164.448V163.824C247.802 163.824 247.454 164.04 247.238 164.316V163.89H246.608V166.788ZM250.645 166.788H251.275V163.89H250.645V165.924C250.495 166.122 250.219 166.302 249.901 166.302C249.547 166.302 249.319 166.164 249.319 165.714V163.89H248.689V165.942C248.689 166.536 248.995 166.86 249.619 166.86C250.075 166.86 250.435 166.638 250.645 166.404V166.788ZM252.093 166.788H252.723V162.786H252.093V166.788ZM253.36 165.336C253.36 166.254 254.008 166.86 254.878 166.86C255.34 166.86 255.766 166.716 256.054 166.44L255.766 166.026C255.562 166.23 255.226 166.344 254.944 166.344C254.398 166.344 254.068 165.984 254.02 165.546H256.258V165.396C256.258 164.484 255.7 163.818 254.83 163.818C253.972 163.818 253.36 164.496 253.36 165.336ZM254.83 164.334C255.4 164.334 255.634 164.76 255.646 165.102H254.014C254.044 164.748 254.29 164.334 254.83 164.334ZM256.628 166.41C256.928 166.704 257.378 166.86 257.87 166.86C258.65 166.86 259.076 166.47 259.076 165.96C259.076 165.276 258.458 165.132 257.954 165.024C257.612 164.946 257.324 164.868 257.324 164.646C257.324 164.442 257.534 164.322 257.864 164.322C258.224 164.322 258.548 164.472 258.722 164.67L258.986 164.226C258.722 163.992 258.35 163.818 257.858 163.818C257.126 163.818 256.718 164.226 256.718 164.7C256.718 165.348 257.312 165.48 257.81 165.588C258.164 165.666 258.47 165.756 258.47 166.008C258.47 166.224 258.278 166.362 257.9 166.362C257.522 166.362 257.12 166.164 256.916 165.954L256.628 166.41ZM259.614 166.434C259.614 166.662 259.806 166.854 260.034 166.854C260.262 166.854 260.454 166.662 260.454 166.434C260.454 166.206 260.262 166.014 260.034 166.014C259.806 166.014 259.614 166.206 259.614 166.434Z" fill="#165E18"/>
<path opacity="0.2" d="M86.0703 71.287C84.9938 69.9443 78.3355 60.5854 77.1393 58.4716C75.9432 56.3579 74.4281 55.0418 74.4281 55.0418L70.5607 51.6651L68.5672 50.2161L66.2813 48.9798C66.2813 48.9798 65.218 47.1452 66.6667 47.2515C68.102 47.3446 71.491 48.4879 71.491 48.4879L67.5173 43.9945L62.5201 39.1688C62.5201 39.1688 61.6696 37.8261 62.9188 37.9192C64.1814 38.0122 65.2845 38.5839 66.4673 39.3682C67.6634 40.1526 71.491 43.8483 71.491 43.8483L69.3646 34.3431C69.3646 34.3431 68.7267 30.993 70.9062 32.6681C73.0858 34.3564 74.1225 38.2781 74.6939 39.6075C75.2654 40.9502 75.3452 43.2235 75.9565 44.8055C76.5812 46.3874 78.0696 48.4879 78.0696 48.4879L79.0531 49.9901C79.0531 49.9901 80.5682 46.2412 81.4321 44.4332C82.3092 42.6252 82.3358 41.5883 85.0736 41.1629C86.5887 40.9236 88.4626 40.6445 89.8315 40.4317C90.7883 40.2855 92.3965 39.7006 92.33 40.6179L92.3566 41.482C92.3034 42.0669 91.0807 43.0374 90.4694 43.1836C89.1271 43.5425 86.8279 44.2471 86.1767 45.1644C85.2463 46.4805 84.4489 47.2117 84.4755 48.4879C84.5021 49.7774 84.3027 51.1068 84.542 51.8247C84.7812 52.5425 86.469 54.3638 87.293 54.5499C88.117 54.7227 90.4694 54.0182 90.7086 53.3535C90.9478 52.6888 91.2934 50.8808 91.2801 49.578C91.2668 48.2752 90.9212 46.6932 91.1472 45.6829C91.3731 44.6592 92.1705 41.8542 93.6324 41.2826C95.0944 40.7109 95.719 40.7907 95.7057 41.8542C95.6924 42.931 95.3602 43.8084 95.3602 45.3239C95.3602 46.8394 95.5064 49.2589 95.9981 50.3224C96.4898 51.386 96.7025 55.1747 96.6892 56.3579C96.6759 57.5411 96.3038 59.0566 95.8253 60.2131C95.3469 61.3697 94.2438 62.6991 94.3368 64.2678C94.4298 65.8365 94.8684 66.8734 96.2639 67.4318C97.367 67.8704 107.175 69.8114 111.202 70.7951L111.269 40.6976L92.1041 25.5824L27.1816 25.1836C23.2078 25.5425 22.8357 28.3343 22.8357 29.1186V70.2501C23.1015 73.321 26.1051 73.999 26.9291 73.999H89.5524C88.0771 73.0418 86.6684 72.0315 86.0703 71.287Z" fill="#165E18"/>
<path d="M111.295 71.0211V31.8572" stroke="#165E18" stroke-width="0.8581" stroke-miterlimit="10"/>
<path d="M89.167 73.9191H26.8361C24.6831 73.9191 22.9288 72.2707 22.9288 70.2367V28.7995C22.9288 26.7655 24.6698 25.1171 26.8361 25.1171H95.0679L95.0413 21.3948H103.959C106.484 21.3948 108.717 22.6045 110.033 24.4524C110.033 24.4524 110.936 25.9546 111.255 27.736" stroke="#165E18" stroke-width="0.8581" stroke-miterlimit="10"/>
<path d="M10.4493 27.3771C15.668 27.3771 19.8986 23.1453 19.8986 17.9251C19.8986 12.7049 15.668 8.47314 10.4493 8.47314C5.2306 8.47314 1 12.7049 1 17.9251C1 23.1453 5.2306 27.3771 10.4493 27.3771Z" stroke="#165E18" stroke-width="0.8828"/>
<path d="M9.74457 22.4302H11.2307V12.8987H9.93034L7.51531 15.3709L8.38701 16.2854L9.74457 14.8421V22.4302Z" fill="#165E18"/>
<path d="M67.1053 34.835H69.7368" stroke="#165E18" stroke-width="0.8581" stroke-miterlimit="10"/>
<path d="M80.6081 64.2146H34.3052V34.835H67.8097" stroke="#165E18" stroke-width="0.8581" stroke-miterlimit="10"/>
<path d="M72.7404 34.835H98.7226V64.2146H94.1242" stroke="#165E18" stroke-width="0.8581" stroke-miterlimit="10"/>
<path d="M84.3028 69.1999H27.5139V29.9429H75.1193" stroke="#165E18" stroke-width="0.8581" stroke-miterlimit="10"/>
<path d="M73.4049 29.9429H105.673V69.5588" stroke="#165E18" stroke-width="0.8581" stroke-miterlimit="10"/>
<path d="M28.0853 29.9429L34.8766 34.835" stroke="#165E18" stroke-width="0.8581" stroke-miterlimit="10"/>
<path d="M105.673 29.9429L98.7227 34.835" stroke="#165E18" stroke-width="0.8581" stroke-miterlimit="10"/>
<path d="M105.673 69.1998L98.7227 64.2146" stroke="#165E18" stroke-width="0.8581" stroke-miterlimit="10"/>
<path d="M34.8633 64.2146L28.0853 69.1998" stroke="#165E18" stroke-width="0.8581" stroke-miterlimit="10"/>
<path d="M95.4001 44.3933L111.295 40.6577" stroke="#165E18" stroke-width="0.8581" stroke-miterlimit="10"/>
<path d="M91.7985 25.1172L91.9447 43.4761" stroke="#165E18" stroke-width="0.8581" stroke-miterlimit="10"/>
<path d="M95.4001 44.3934L110.95 40.3786L92.144 25.5293L92.3567 42.9975C92.7953 42.9975 93.287 41.3092 94.9217 42.1999C95.5198 42.5323 95.2805 44.0743 95.0945 44.513" fill="#165E18"/>
<path d="M118.924 10.095C118.924 10.095 113.608 7.15701 112.598 6.61196C109.142 4.73751 109.023 2.87636 107.494 3.46129C107.494 3.46129 106.936 3.8867 107.029 4.35199C107.109 4.81728 108.172 6.10679 108.996 7.07725C109.86 8.08759 110.976 8.84534 110.976 8.84534" stroke="#165E18" stroke-width="0.8581" stroke-miterlimit="10"/>
<path d="M111.893 9.21757C111.893 9.21757 105.049 6.69172 103.932 6.12008C102.816 5.54844 97.8322 3.26188 97.1013 3.20871C96.8089 3.18212 96.3969 3.43471 96.4368 3.76705C96.5165 4.57798 96.9152 4.96351 97.5664 5.48197C98.4835 6.19985 99.9055 7.30324 100.557 7.71536C101.766 8.4997 105.049 9.78921 105.049 9.78921" stroke="#165E18" stroke-width="0.8581" stroke-miterlimit="10"/>
<path d="M151.99 27.6695C151.99 27.6695 141.105 16.7153 138.979 15.6252C136.852 14.5351 126.38 11.4642 123.775 11.0122C121.17 10.5602 115.096 9.09788 113.847 9.11117C112.598 9.12447 98.3638 10.3874 93.4332 10.733C92.6889 10.7862 92.3833 11.6636 92.9414 12.1289C93.4465 12.541 94.0977 12.9398 94.9084 13.1259C96.9285 13.5912 102.63 14.0299 104.557 13.4716C106.471 12.9265 113.422 14.7744 113.422 14.7744C113.422 14.7744 106.404 19.9856 106.152 20.7168C105.886 21.448 106.019 21.4214 106.139 21.8867" stroke="#165E18" stroke-width="0.8581" stroke-miterlimit="10"/>
<path d="M109.674 23.6281C110.365 22.4583 113.568 19.7197 115.309 19.3874C117.037 19.055 117.794 19.2012 118.273 19.3874C118.751 19.5735 120.558 20.5572 120.851 21.5676C121.143 22.5779 121.09 23.4952 120.226 24.3194C119.362 25.1436 115.867 26.2736 113.754 26.6326C110.405 27.1909 107.973 31.1525 108.73 31.99C109.647 33.0137 112.89 31.0063 114.126 30.634C115.468 30.2352 120.705 29.8098 122.02 29.6237C123.336 29.4376 123.974 29.3844 124.665 29.0255C125.356 28.6798 131.709 24.7448 131.855 24.6119C132.001 24.4789 133.397 23.8541 133.955 23.9871C134.513 24.1067 135.324 24.2928 136.108 25.1835C136.879 26.0609 138.726 28.0151 140.494 30.86C142.261 33.7049 143.63 36.1244 143.63 36.1244" stroke="#165E18" stroke-width="0.8581" stroke-miterlimit="10"/>
<path d="M109.368 23.6282C107.507 21.7936 104.956 21.3018 103.786 21.3682C100.464 21.2885 98.3372 21.448 95.028 21.3682" stroke="#165E18" stroke-width="0.8581" stroke-miterlimit="10"/>
<path d="M193.426 27.4488C198.498 26.2226 201.616 21.1153 200.391 16.0412C199.165 10.9672 194.059 7.84794 188.986 9.07416C183.914 10.3004 180.795 15.4077 182.021 20.4818C183.247 25.5558 188.353 28.6751 193.426 27.4488Z" stroke="#165E18" stroke-width="0.8828"/>
<path d="M189.073 22.4304H193.874V21.1157H191.016C193.317 17.6575 193.846 16.6001 193.846 15.3425C193.846 13.7992 192.874 12.756 191.359 12.756C190.159 12.756 189.43 13.3419 188.844 14.3279L189.83 15.1996C190.202 14.4565 190.673 14.085 191.302 14.085C191.931 14.085 192.331 14.6566 192.331 15.3711C192.331 16.4286 192.016 17.0431 189.073 21.1872V22.4304Z" fill="#165E18"/>
<path d="M296.733 7.88818C296.733 7.88818 291.417 4.95022 290.407 4.40517C286.951 2.53073 286.832 0.669573 285.303 1.25451C285.303 1.25451 284.745 1.67991 284.838 2.1452C284.918 2.61049 285.981 3.9 286.805 4.87046C287.669 5.8808 288.785 6.63855 288.785 6.63855" stroke="#165E18" stroke-width="0.8581" stroke-miterlimit="10"/>
<path d="M289.716 7.01078C289.716 7.01078 282.871 4.48493 281.755 3.91329C280.638 3.34166 275.655 1.0551 274.924 1.00192C274.631 0.975333 274.219 1.22792 274.259 1.56027C274.339 2.3712 274.738 2.75672 275.389 3.27519C276.306 3.99306 277.728 5.09646 278.379 5.50857C279.589 6.29291 282.871 7.58242 282.871 7.58242" stroke="#165E18" stroke-width="0.8581" stroke-miterlimit="10"/>
<path d="M329.812 25.4627C329.812 25.4627 318.928 14.5085 316.801 13.4184C314.675 12.3283 304.202 9.25742 301.597 8.80542C298.992 8.35343 292.919 6.89109 291.669 6.90439C290.42 6.91768 276.186 8.16731 271.256 8.51295C270.511 8.56613 270.206 9.44353 270.764 9.90882C271.256 10.3209 271.92 10.7197 272.718 10.9059C274.738 11.3712 280.439 11.8099 282.366 11.2515C284.28 10.7065 291.231 12.5543 291.231 12.5543C291.231 12.5543 284.214 17.7655 283.961 18.4967C283.828 18.8556 284.001 20.3579 284.214 21.8468" stroke="#165E18" stroke-width="0.8581" stroke-miterlimit="10"/>
<path d="M287.922 23.708C287.908 22.8572 287.762 21.6076 288.44 20.4377C289.131 19.2679 291.39 17.5263 293.118 17.194C294.846 16.8617 295.603 17.0079 296.082 17.194C296.56 17.3801 298.368 18.3639 298.66 19.3742C298.952 20.3845 298.899 21.3018 298.035 22.1261C297.172 22.9503 293.676 24.0803 291.563 24.4392C288.214 24.9975 285.782 28.9591 286.539 29.7967C287.456 30.8203 290.699 28.8129 291.935 28.4407C293.278 28.0419 298.514 27.6165 299.83 27.4303C301.145 27.2442 301.783 27.191 302.474 26.8321C303.165 26.4865 309.518 22.5515 309.664 22.4185C309.81 22.2856 311.206 21.6608 311.764 21.7937C312.322 21.9133 313.133 22.0995 313.917 22.9902C314.688 23.8676 316.535 25.8218 318.303 28.6667C320.071 31.5116 321.439 33.9311 321.439 33.9311" stroke="#165E18" stroke-width="0.8581" stroke-miterlimit="10"/>
<path d="M278.406 34.7153H217.789V62.38H278.406V34.7153Z" stroke="#165E18" stroke-width="0.8581" stroke-miterlimit="10"/>
<path d="M284.945 30.1289H211.397V67.0728H284.945V30.1289Z" stroke="#165E18" stroke-width="0.8581" stroke-miterlimit="10"/>
<path d="M289.251 25.1969C288.015 23.482 285.702 22.0596 283.336 22.0596H274.95L274.977 25.5692H210.772C208.739 25.5692 207.104 27.1246 207.104 29.0389V68.03C207.104 69.9444 208.752 71.4998 210.772 71.4998H286.579C288.613 71.4998 290.247 69.9444 290.247 68.03L289.968 29.3314" stroke="#165E18" stroke-width="0.8581" stroke-miterlimit="10"/>
<path d="M211.397 30.1289L217.789 34.7153" stroke="#165E18" stroke-width="0.8581" stroke-miterlimit="10"/>
<path d="M284.945 30.1289L278.406 34.7153" stroke="#165E18" stroke-width="0.8581" stroke-miterlimit="10"/>
<path d="M284.945 67.0596L278.406 62.3801" stroke="#165E18" stroke-width="0.8581" stroke-miterlimit="10"/>
<path d="M206.705 43.4229L191.275 46.2811C191.275 46.6134 192.153 49.126 192.153 49.126L207.516 70.3431L208.034 70.7419L210.054 71.4332L268.239 71.0876L268.77 66.9664L206.705 43.4229Z" fill="#165E18"/>
<path d="M191.727 46.4539C191.302 46.64 182.743 48.4613 182.172 48.9133C181.6 49.3653 179.195 56.7434 179.195 56.7434C179.195 56.7434 175.234 51.7449 175.101 50.0167C174.968 48.2885 172.696 43.8217 171.606 42.3461C171.167 41.7611 170.596 41.3623 170.051 41.0964C169.44 40.7907 168.749 41.3357 168.948 41.9472C170.264 46.0418 173.812 57.9399 174.211 58.9502C174.61 59.9605 177.919 64.3874 179.195 66.3416C180.457 68.2958 186.69 75.7272 188.378 77.0964C189.003 77.6016 192.312 79.0639 196.193 80.6991" stroke="#165E18" stroke-width="0.8581" stroke-miterlimit="10"/>
<path d="M176.789 62.7389C176.789 62.7389 172.39 59.4154 171.553 58.7773C168.722 56.6104 167.008 57.1156 167.021 55.6931C167.021 55.6931 167.22 55.1082 167.672 55.0151C168.124 54.9221 169.626 55.3608 170.782 55.7064C171.978 56.0653 173.028 56.73 173.028 56.73" stroke="#165E18" stroke-width="0.8581" stroke-miterlimit="10"/>
<path d="M173.732 57.3947C173.732 57.3947 169.161 52.662 168.27 51.9442C167.38 51.2396 163.685 47.9693 163.393 47.3843C163.273 47.145 163.366 46.7462 163.672 46.6665C164.429 46.467 164.908 46.6532 165.599 47.0121C166.556 47.5173 168.018 48.3016 168.602 48.6871C169.705 49.405 171.898 51.5719 171.898 51.5719" stroke="#165E18" stroke-width="0.8581" stroke-miterlimit="10"/>
<path d="M190.97 49.2323C190.199 49.4982 186.225 50.9605 185.401 51.9044C184.564 52.8482 183.74 55.2411 184.006 56.7566C184.272 58.2589 184.657 58.8305 184.976 59.1496C185.308 59.4819 186.783 60.6119 187.793 60.5188C188.803 60.4258 189.601 60.0801 190.066 59.1097C190.531 58.1392 190.398 54.9487 190.026 53.1274C189.428 50.2426 192.206 46.9723 193.216 47.3047C194.439 47.7035 193.694 50.9871 193.774 52.1038C193.854 53.3268 195.196 57.6872 195.462 58.8039C195.728 59.9206 195.887 60.4657 195.794 61.1304C195.701 61.8083 194.239 68.2293 194.173 68.3888C194.106 68.5484 194 69.8778 194.292 70.2899C194.585 70.702 195.023 71.3002 196.073 71.6326C197.123 71.9649 199.502 72.8024 202.639 73.3076" stroke="#165E18" stroke-width="0.8581" stroke-miterlimit="10"/>
<path d="M91.7453 40.0993C91.2668 40.2721 83.625 41.1761 82.9604 41.6281C82.2959 42.0801 79.093 49.9501 79.093 49.9501C79.093 49.9501 75.1857 44.2204 75.1724 42.3327C75.1591 40.4449 73.046 35.4065 71.9695 33.7182C71.5442 33.0535 70.9461 32.5749 70.388 32.2426C69.75 31.8703 68.9526 32.4021 69.1254 33.0934C70.2285 37.6532 73.1523 50.8807 73.5111 52.0107C73.87 53.1406 77.1261 58.1923 78.3488 60.4124C79.5715 62.6325 85.7647 71.1805 87.4924 72.7891C88.5157 73.733 96.636 77.7743 103.122 80.9117" stroke="#165E18" stroke-width="0.8581" stroke-miterlimit="10"/>
<path d="M75.9832 56.3179C75.9832 56.3179 71.4512 52.3829 70.6007 51.6251C67.6901 49.0594 65.7763 49.4981 65.9092 47.9427C65.9092 47.9427 66.175 47.3179 66.6668 47.2514C67.1585 47.1849 68.7799 47.7566 70.0026 48.2219C71.2785 48.7004 72.3682 49.4981 72.3682 49.4981" stroke="#165E18" stroke-width="0.8581" stroke-miterlimit="10"/>
<path d="M73.0726 50.2693C73.0726 50.2693 68.4609 44.7789 67.5572 43.9413C66.6535 43.1038 62.8658 39.2752 62.6 38.6238C62.4937 38.3579 62.6266 37.9192 62.9588 37.8527C63.7961 37.6799 64.3144 37.9325 65.0321 38.3712C66.0288 38.9827 67.5572 39.9532 68.1686 40.4051C69.3115 41.2693 71.531 43.7818 71.531 43.7818" stroke="#165E18" stroke-width="0.8581" stroke-miterlimit="10"/>
<path d="M92.5028 42.5986C91.6389 42.8379 87.2 44.154 86.2165 45.1111C85.2331 46.0816 84.1433 48.634 84.316 50.2958C84.4888 51.9575 84.8609 52.5956 85.1932 52.9811C85.5255 53.3667 87.0405 54.6961 88.1569 54.6695C89.26 54.6429 90.1637 54.3105 90.7485 53.3002C91.3333 52.2766 91.4529 48.7936 91.1871 46.7729C90.7618 43.5823 94.0445 40.219 95.121 40.6577C96.4234 41.1894 95.3469 44.7123 95.3336 45.9221C95.3203 47.2515 96.45 52.117 96.636 53.3534C96.8221 54.5897 96.9683 55.1879 96.8221 55.9191C96.6759 56.6503 94.5628 63.5498 94.4697 63.7094C94.3767 63.8822 94.1641 65.3312 94.4564 65.7965C94.7488 66.2618 95.1741 66.9398 96.2905 67.3918C97.4069 67.8305 100.211 68.442 103.613 69.2131C107.002 69.9841 116.704 71.8984 116.704 71.8984" stroke="#165E18" stroke-width="0.8581" stroke-miterlimit="10"/>
</svg>
