<svg width="566" height="82" viewBox="0 0 566 82" fill="none" xmlns="http://www.w3.org/2000/svg">
<path d="M393.286 23.0035L394.867 21.262" stroke="#165E18" stroke-width="0.8828" stroke-miterlimit="10" stroke-linecap="round" stroke-linejoin="round"/>
<path d="M393.472 19.4673L394.868 21.262" stroke="#165E18" stroke-width="0.8828" stroke-miterlimit="10" stroke-linecap="round" stroke-linejoin="round"/>
<path d="M374.148 30.1157C375.358 28.4672 377.963 25.3697 382.401 23.2427C387.837 20.6238 392.834 21.0093 394.868 21.2619" stroke="#165E18" stroke-width="0.8828" stroke-miterlimit="10" stroke-linecap="round" stroke-linejoin="round"/>
<path d="M484.217 22.6578L482.636 20.9163" stroke="#165E18" stroke-width="0.8828" stroke-miterlimit="10" stroke-linecap="round" stroke-linejoin="round"/>
<path d="M484.031 19.1216L482.636 20.9163" stroke="#165E18" stroke-width="0.8828" stroke-miterlimit="10" stroke-linecap="round" stroke-linejoin="round"/>
<path d="M503.355 29.7833C502.146 28.1348 499.541 25.0374 495.102 22.9103C489.666 20.2914 484.669 20.6769 482.636 20.9295" stroke="#165E18" stroke-width="0.8828" stroke-miterlimit="10" stroke-linecap="round" stroke-linejoin="round"/>
<path d="M545.525 24.5188H513.296V40.086H545.525V24.5188Z" stroke="#165E18" stroke-width="0.8828" stroke-miterlimit="10"/>
<path d="M509.774 19.2279H543.638V17.3933H547.718C548.595 17.3933 549.459 17.5661 550.27 17.9118L545.525 24.5189L552.011 22.2855V42.4923L545.525 40.0861L549.658 45.3106H510.147L513.296 40.0861L507.515 42.7316V22.4317L513.296 24.5189L509.774 19.2279Z" stroke="#165E18" stroke-width="0.8828" stroke-miterlimit="10" stroke-linecap="round" stroke-linejoin="round"/>
<path d="M511.502 21.8335H547.306" stroke="#165E18" stroke-width="0.8828" stroke-miterlimit="10" stroke-linecap="round" stroke-linejoin="round"/>
<path d="M549.113 23.2826V41.256" stroke="#165E18" stroke-width="0.8828" stroke-miterlimit="10" stroke-linecap="round" stroke-linejoin="round"/>
<path d="M547.519 42.6119H511.888" stroke="#165E18" stroke-width="0.8828" stroke-miterlimit="10" stroke-linecap="round" stroke-linejoin="round"/>
<path d="M509.907 41.6415V23.3623" stroke="#165E18" stroke-width="0.8828" stroke-miterlimit="10" stroke-linecap="round" stroke-linejoin="round"/>
<path opacity="0.35" d="M356.858 49.1527L357.23 67.7509L374.148 63.4969L356.858 49.1527Z" fill="#165E18"/>
<path d="M348.618 40.7243L384.488 63.3772L389.897 40.5249C391.146 35.4067 390.907 36.6564 386.641 36.231L350.026 36.7361L348.618 40.7243Z" fill="#165E18"/>
<path d="M446.168 17.8853L471.246 5.94735C472.814 5.20289 474.675 5.86759 475.419 7.43627L477.546 11.9163L446.806 26.553L444.679 22.0729C443.935 20.4909 444.599 18.6298 446.168 17.8853Z" stroke="#165E18" stroke-width="0.8828" stroke-miterlimit="10"/>
<path d="M453.331 9.73607L460.056 6.53223C460.867 6.1467 461.837 6.49235 462.236 7.30328L463.365 9.68289L453.69 14.2826L452.56 11.903C452.175 11.0921 452.52 10.1216 453.331 9.73607Z" stroke="#165E18" stroke-width="0.8828" stroke-miterlimit="10"/>
<path d="M451.922 76.9368L478.13 76.9102L481.121 27.0181L447.084 27.0579L449.556 67.4715" stroke="#165E18" stroke-width="0.8828" stroke-miterlimit="10"/>
<path d="M452.228 76.9502C455.046 76.9502 457.331 74.6647 457.331 71.8454C457.331 69.026 455.046 66.7405 452.228 66.7405C449.409 66.7405 447.125 69.026 447.125 71.8454C447.125 74.6647 449.409 76.9502 452.228 76.9502Z" stroke="#165E18" stroke-width="0.8828" stroke-miterlimit="10"/>
<path d="M431.881 17.8853L406.802 5.94735C405.234 5.20289 403.373 5.86759 402.629 7.43627L400.502 11.9163L431.243 26.553L433.369 22.0729C434.113 20.4909 433.449 18.6298 431.881 17.8853Z" stroke="#165E18" stroke-width="0.8828" stroke-miterlimit="10"/>
<path d="M424.717 9.73607L417.992 6.53223C417.182 6.1467 416.211 6.49235 415.813 7.30328L414.683 9.68289L424.358 14.2826L425.488 11.903C425.873 11.0921 425.528 10.1216 424.717 9.73607Z" stroke="#165E18" stroke-width="0.8828" stroke-miterlimit="10"/>
<path d="M426.458 76.937L400.237 76.9635L397.153 27.0714L431.189 27.0315L428.757 67.4717" stroke="#165E18" stroke-width="0.8828" stroke-miterlimit="10"/>
<path d="M426.139 76.9368C428.958 76.9368 431.243 74.6513 431.243 71.8319C431.243 69.0126 428.958 66.7271 426.139 66.7271C423.321 66.7271 421.036 69.0126 421.036 71.8319C421.036 74.6513 423.321 76.9368 426.139 76.9368Z" stroke="#165E18" stroke-width="0.8828" stroke-miterlimit="10"/>
<path d="M403.128 40.3821L401.525 40.3805L401.52 45.0005L402.402 45.0014L402.403 43.6084L403.236 43.6092C404.3 43.6103 405.022 43.058 405.023 41.994C405.024 40.937 404.318 40.3833 403.128 40.3821ZM403.076 42.9021L402.404 42.9014L402.406 41.0884L403.043 41.089C403.757 41.0898 404.135 41.4331 404.134 41.9931C404.133 42.5811 403.748 42.9027 403.076 42.9021ZM406.6 44.2776L406.604 40.3856L405.722 40.3847L405.717 45.0047L408.755 45.0078L408.756 44.2798L406.6 44.2776ZM412.252 45.0113L413.148 45.0121L411.494 40.3905L410.556 40.3896L408.878 45.0079L409.788 45.0088L410.139 43.9731L411.903 43.9749L412.252 45.0113ZM410.371 43.2944L410.869 41.8319C410.918 41.6849 410.975 41.489 411.01 41.314L411.031 41.314C411.073 41.4891 411.121 41.6851 411.17 41.8252L411.673 43.2957L410.371 43.2944ZM416.03 41.732L416.828 41.5368C416.737 41.0887 416.388 40.3464 415.149 40.3451C414.183 40.3442 413.538 40.9245 413.538 41.6945C413.536 43.3045 415.98 42.782 415.978 43.804C415.978 44.133 415.691 44.3357 415.159 44.3352C414.522 44.3345 414.053 43.9841 413.85 43.8019L413.325 44.4453C413.591 44.6766 414.22 45.0622 415.137 45.0631C416.25 45.0643 416.86 44.5189 416.86 43.7909C416.862 42.0619 414.419 42.5424 414.42 41.6534C414.42 41.3034 414.707 41.0867 415.169 41.0872C415.757 41.0878 416.009 41.48 416.03 41.732ZM418.544 45.0175L419.426 45.0184L419.43 41.1264L420.865 41.1279L420.866 40.3999L417.121 40.3961L417.12 41.1241L418.548 41.1255L418.544 45.0175ZM421.46 45.0205L422.335 45.0213L422.34 40.4013L421.465 40.4005L421.46 45.0205ZM425.297 40.3553C424.044 40.354 423.147 41.2771 423.146 42.7121C423.144 44.1821 424.06 45.0721 425.411 45.0734C426.44 45.0744 426.987 44.445 427.176 44.1792L426.652 43.6397C426.442 43.9194 426.028 44.304 425.433 44.3034C424.712 44.3027 424.041 43.847 424.042 42.713C424.043 41.712 424.603 41.1246 425.31 41.1253C426.045 41.126 426.318 41.7213 426.317 42.1553L427.143 42.0301C427.137 41.3301 426.655 40.3567 425.297 40.3553Z" fill="#165E18"/>
<path d="M456.127 40.3821L454.524 40.3805L454.519 45.0005L455.401 45.0014L455.402 43.6084L456.235 43.6092C457.299 43.6103 458.021 43.058 458.022 41.994C458.023 40.937 457.317 40.3833 456.127 40.3821ZM456.075 42.9021L455.403 42.9014L455.405 41.0884L456.042 41.089C456.756 41.0898 457.134 41.4331 457.133 41.9931C457.132 42.5811 456.747 42.9027 456.075 42.9021ZM461.348 45.0073L462.244 45.0082L460.589 40.3866L459.651 40.3856L457.974 45.004L458.884 45.0049L459.235 43.9692L460.999 43.971L461.348 45.0073ZM459.466 43.2905L459.965 41.828C460.014 41.681 460.07 41.4851 460.105 41.3101L460.126 41.3101C460.168 41.4852 460.217 41.6812 460.266 41.8213L460.768 43.2918L459.466 43.2905ZM464.419 40.3904L462.816 40.3888L462.811 45.0088L463.693 45.0097L463.694 43.6167L464.527 43.6175C465.591 43.6186 466.313 43.0663 466.314 42.0023C466.315 40.9453 465.609 40.3916 464.419 40.3904ZM464.367 42.9104L463.695 42.9097L463.697 41.0967L464.334 41.0973C465.048 41.098 465.426 41.4414 465.425 42.0014C465.424 42.5894 465.039 42.911 464.367 42.9104ZM470.015 41.124L470.016 40.396L467.013 40.393L467.008 45.013L470.011 45.016L470.012 44.288L467.891 44.2859L467.892 42.9979L469.747 42.9997L469.748 42.2997L467.893 42.2979L467.894 41.1219L470.015 41.124ZM474.498 44.3485C474.498 44.3485 474.435 44.3624 474.358 44.3624C473.749 44.3618 473.742 43.4867 473.211 43.2202C473.813 43.0038 474.177 42.5632 474.178 41.9192C474.179 40.8622 473.543 40.3995 472.381 40.3984L470.862 40.3969L470.857 45.0169L471.739 45.0177L471.741 43.3727L472.007 43.373C473.099 43.3741 472.712 45.0677 474.084 45.0691C474.371 45.0694 474.553 45.0206 474.553 45.0206L474.498 44.3485ZM471.741 42.7357L471.743 41.1047L472.331 41.1053C472.954 41.106 473.304 41.3863 473.303 41.9253C473.302 42.4503 472.868 42.7369 472.259 42.7363L471.741 42.7357Z" fill="#165E18"/>
<path d="M360.545 27.5295C365.667 26.5329 369.012 21.5712 368.016 16.447C367.02 11.3229 362.059 7.97679 356.937 8.97333C351.814 9.96986 348.469 14.9316 349.465 20.0558C350.461 25.1799 355.422 28.526 360.545 27.5295Z" stroke="#165E18" stroke-width="0.8828"/>
<path d="M356.297 21.0299C356.755 21.9016 357.655 22.6018 358.855 22.6018C360.499 22.6018 361.427 21.4586 361.427 19.8295C361.427 18.6577 360.756 17.686 359.87 17.5002C360.756 17.2716 361.313 16.2998 361.313 15.3138C361.313 13.5419 360.27 12.7559 358.855 12.7559C357.855 12.7559 356.94 13.2846 356.412 14.2992L357.412 15.0852C357.698 14.485 358.169 14.0849 358.784 14.0849C359.47 14.0849 359.841 14.5279 359.841 15.5282C359.841 16.4427 359.37 16.9 358.669 16.9C358.555 16.9 358.284 16.9 358.169 16.8857V18.2433C358.298 18.2147 358.527 18.2147 358.727 18.2147C359.255 18.2147 359.941 18.5291 359.941 19.7295C359.941 20.6297 359.655 21.2728 358.784 21.2728C358.112 21.2728 357.655 20.8012 357.34 20.1725L356.297 21.0299Z" fill="#165E18"/>
<path d="M501.583 54.8662C501.937 55.2442 502.471 55.5022 503.209 55.5022C504.289 55.5022 504.757 54.9322 504.757 54.2662C504.757 53.3962 503.971 53.1922 503.311 53.0242C502.837 52.9042 502.429 52.8022 502.429 52.4902C502.429 52.1902 502.693 51.9922 503.107 51.9922C503.527 51.9922 503.953 52.1362 504.265 52.4482L504.667 51.9262C504.295 51.5662 503.791 51.3682 503.167 51.3682C502.291 51.3682 501.709 51.8782 501.709 52.5382C501.709 53.3842 502.477 53.5762 503.131 53.7382C503.617 53.8642 504.043 53.9722 504.043 54.3322C504.043 54.5962 503.815 54.8782 503.239 54.8782C502.681 54.8782 502.249 54.6202 501.973 54.3262L501.583 54.8662ZM505.206 53.9782C505.206 54.8962 505.854 55.5022 506.724 55.5022C507.186 55.5022 507.612 55.3582 507.9 55.0822L507.612 54.6682C507.408 54.8722 507.072 54.9862 506.79 54.9862C506.244 54.9862 505.914 54.6262 505.866 54.1882H508.104V54.0382C508.104 53.1262 507.546 52.4602 506.676 52.4602C505.818 52.4602 505.206 53.1382 505.206 53.9782ZM506.676 52.9762C507.246 52.9762 507.48 53.4022 507.492 53.7442H505.86C505.89 53.3902 506.136 52.9762 506.676 52.9762ZM509.356 56.5342V55.0282C509.59 55.3402 509.92 55.5022 510.286 55.5022C511.036 55.5022 511.57 54.9322 511.57 53.9782C511.57 53.0242 511.036 52.4602 510.286 52.4602C509.908 52.4602 509.572 52.6402 509.356 52.9282V52.5322H508.726V56.5342H509.356ZM510.916 53.9782C510.916 54.5422 510.598 54.9442 510.1 54.9442C509.806 54.9442 509.494 54.7642 509.356 54.5542V53.4082C509.494 53.1922 509.806 53.0182 510.1 53.0182C510.598 53.0182 510.916 53.4202 510.916 53.9782ZM513.976 55.4302H514.606V53.5102C514.606 52.7302 514.042 52.4602 513.4 52.4602C512.938 52.4602 512.518 52.6102 512.182 52.9282L512.44 53.3662C512.692 53.1202 512.974 53.0002 513.298 53.0002C513.7 53.0002 513.976 53.2042 513.976 53.5402V53.9722C513.766 53.7262 513.43 53.6002 513.04 53.6002C512.566 53.6002 512.032 53.8762 512.032 54.5422C512.032 55.1842 512.566 55.5022 513.04 55.5022C513.424 55.5022 513.76 55.3642 513.976 55.1182V55.4302ZM513.976 54.7702C513.832 54.9682 513.562 55.0702 513.286 55.0702C512.932 55.0702 512.668 54.8662 512.668 54.5542C512.668 54.2362 512.932 54.0322 513.286 54.0322C513.562 54.0322 513.832 54.1342 513.976 54.3322V54.7702ZM515.423 55.4302H516.053V53.4562C516.179 53.2522 516.533 53.0722 516.797 53.0722C516.875 53.0722 516.941 53.0782 516.995 53.0902V52.4662C516.617 52.4662 516.269 52.6822 516.053 52.9582V52.5322H515.423V55.4302ZM519.273 55.4302H519.903V53.5102C519.903 52.7302 519.339 52.4602 518.697 52.4602C518.235 52.4602 517.815 52.6102 517.479 52.9282L517.737 53.3662C517.989 53.1202 518.271 53.0002 518.595 53.0002C518.997 53.0002 519.273 53.2042 519.273 53.5402V53.9722C519.063 53.7262 518.727 53.6002 518.337 53.6002C517.863 53.6002 517.329 53.8762 517.329 54.5422C517.329 55.1842 517.863 55.5022 518.337 55.5022C518.721 55.5022 519.057 55.3642 519.273 55.1182V55.4302ZM519.273 54.7702C519.129 54.9682 518.859 55.0702 518.583 55.0702C518.229 55.0702 517.965 54.8662 517.965 54.5542C517.965 54.2362 518.229 54.0322 518.583 54.0322C518.859 54.0322 519.129 54.1342 519.273 54.3322V54.7702ZM521.59 55.5022C521.884 55.5022 522.07 55.4242 522.184 55.3162L522.034 54.8422C521.986 54.8962 521.872 54.9442 521.752 54.9442C521.572 54.9442 521.476 54.8002 521.476 54.6022V53.0842H522.064V52.5322H521.476V51.7402H520.846V52.5322H520.366V53.0842H520.846V54.7582C520.846 55.2382 521.104 55.5022 521.59 55.5022ZM522.456 53.9782C522.456 54.8962 523.104 55.5022 523.974 55.5022C524.436 55.5022 524.862 55.3582 525.15 55.0822L524.862 54.6682C524.658 54.8722 524.322 54.9862 524.04 54.9862C523.494 54.9862 523.164 54.6262 523.116 54.1882H525.354V54.0382C525.354 53.1262 524.796 52.4602 523.926 52.4602C523.068 52.4602 522.456 53.1382 522.456 53.9782ZM523.926 52.9762C524.496 52.9762 524.73 53.4022 524.742 53.7442H523.11C523.14 53.3902 523.386 52.9762 523.926 52.9762ZM528.387 55.5022C528.681 55.5022 528.867 55.4242 528.981 55.3162L528.831 54.8422C528.783 54.8962 528.669 54.9442 528.549 54.9442C528.369 54.9442 528.273 54.8002 528.273 54.6022V53.0842H528.861V52.5322H528.273V51.7402H527.643V52.5322H527.163V53.0842H527.643V54.7582C527.643 55.2382 527.901 55.5022 528.387 55.5022ZM530.741 55.5022C531.671 55.5022 532.235 54.8122 532.235 53.9782C532.235 53.1502 531.671 52.4602 530.741 52.4602C529.823 52.4602 529.253 53.1502 529.253 53.9782C529.253 54.8122 529.823 55.5022 530.741 55.5022ZM530.741 54.9442C530.207 54.9442 529.907 54.4942 529.907 53.9782C529.907 53.4682 530.207 53.0182 530.741 53.0182C531.281 53.0182 531.581 53.4682 531.581 53.9782C531.581 54.4942 531.281 54.9442 530.741 54.9442ZM534.563 55.4302H535.193V53.0842H535.781V52.5322H535.193V52.3702C535.193 52.0462 535.349 51.8842 535.595 51.8842C535.685 51.8842 535.775 51.9022 535.847 51.9442L535.985 51.4822C535.859 51.4102 535.679 51.3682 535.481 51.3682C534.947 51.3682 534.563 51.7222 534.563 52.3702V52.5322H534.083V53.0842H534.563V55.4302ZM538.029 55.4302H538.659V53.5102C538.659 52.7302 538.095 52.4602 537.453 52.4602C536.991 52.4602 536.571 52.6102 536.235 52.9282L536.493 53.3662C536.745 53.1202 537.027 53.0002 537.351 53.0002C537.753 53.0002 538.029 53.2042 538.029 53.5402V53.9722C537.819 53.7262 537.483 53.6002 537.093 53.6002C536.619 53.6002 536.085 53.8762 536.085 54.5422C536.085 55.1842 536.619 55.5022 537.093 55.5022C537.477 55.5022 537.813 55.3642 538.029 55.1182V55.4302ZM538.029 54.7702C537.885 54.9682 537.615 55.0702 537.339 55.0702C536.985 55.0702 536.721 54.8662 536.721 54.5542C536.721 54.2362 536.985 54.0322 537.339 54.0322C537.615 54.0322 537.885 54.1342 538.029 54.3322V54.7702ZM539.296 53.9782C539.296 54.8602 539.914 55.5022 540.796 55.5022C541.36 55.5022 541.702 55.2622 541.906 54.9862L541.492 54.6022C541.33 54.8242 541.108 54.9442 540.826 54.9442C540.298 54.9442 539.95 54.5422 539.95 53.9782C539.95 53.4142 540.298 53.0182 540.826 53.0182C541.108 53.0182 541.33 53.1322 541.492 53.3602L541.906 52.9762C541.702 52.7002 541.36 52.4602 540.796 52.4602C539.914 52.4602 539.296 53.1022 539.296 53.9782ZM542.77 52.0522C542.986 52.0522 543.16 51.8782 543.16 51.6622C543.16 51.4462 542.986 51.2722 542.77 51.2722C542.56 51.2722 542.38 51.4462 542.38 51.6622C542.38 51.8782 542.56 52.0522 542.77 52.0522ZM542.458 55.4302H543.088V52.5322H542.458V55.4302ZM543.905 55.4302H544.535V51.4282H543.905V55.4302ZM545.665 52.0522C545.881 52.0522 546.055 51.8782 546.055 51.6622C546.055 51.4462 545.881 51.2722 545.665 51.2722C545.455 51.2722 545.275 51.4462 545.275 51.6622C545.275 51.8782 545.455 52.0522 545.665 52.0522ZM545.353 55.4302H545.983V52.5322H545.353V55.4302ZM547.67 55.5022C547.964 55.5022 548.15 55.4242 548.264 55.3162L548.114 54.8422C548.066 54.8962 547.952 54.9442 547.832 54.9442C547.652 54.9442 547.556 54.8002 547.556 54.6022V53.0842H548.144V52.5322H547.556V51.7402H546.926V52.5322H546.446V53.0842H546.926V54.7582C546.926 55.2382 547.184 55.5022 547.67 55.5022ZM550.486 55.4302H551.116V53.5102C551.116 52.7302 550.552 52.4602 549.91 52.4602C549.448 52.4602 549.028 52.6102 548.692 52.9282L548.95 53.3662C549.202 53.1202 549.484 53.0002 549.808 53.0002C550.21 53.0002 550.486 53.2042 550.486 53.5402V53.9722C550.276 53.7262 549.94 53.6002 549.55 53.6002C549.076 53.6002 548.542 53.8762 548.542 54.5422C548.542 55.1842 549.076 55.5022 549.55 55.5022C549.934 55.5022 550.27 55.3642 550.486 55.1182V55.4302ZM550.486 54.7702C550.342 54.9682 550.072 55.0702 549.796 55.0702C549.442 55.0702 549.178 54.8662 549.178 54.5542C549.178 54.2362 549.442 54.0322 549.796 54.0322C550.072 54.0322 550.342 54.1342 550.486 54.3322V54.7702ZM552.803 55.5022C553.097 55.5022 553.283 55.4242 553.397 55.3162L553.247 54.8422C553.199 54.8962 553.085 54.9442 552.965 54.9442C552.785 54.9442 552.689 54.8002 552.689 54.6022V53.0842H553.277V52.5322H552.689V51.7402H552.059V52.5322H551.579V53.0842H552.059V54.7582C552.059 55.2382 552.317 55.5022 552.803 55.5022ZM553.669 53.9782C553.669 54.8962 554.317 55.5022 555.187 55.5022C555.649 55.5022 556.075 55.3582 556.363 55.0822L556.075 54.6682C555.871 54.8722 555.535 54.9862 555.253 54.9862C554.707 54.9862 554.377 54.6262 554.329 54.1882H556.567V54.0382C556.567 53.1262 556.009 52.4602 555.139 52.4602C554.281 52.4602 553.669 53.1382 553.669 53.9782ZM555.139 52.9762C555.709 52.9762 555.943 53.4022 555.955 53.7442H554.323C554.353 53.3902 554.599 52.9762 555.139 52.9762ZM504.349 62.4302H505.009L505.909 59.5322H505.255L504.643 61.6382L503.953 59.5322H503.401L502.711 61.6382L502.099 59.5322H501.445L502.345 62.4302H503.005L503.677 60.3062L504.349 62.4302ZM508.117 62.4302H508.747V60.5102C508.747 59.7302 508.183 59.4602 507.541 59.4602C507.079 59.4602 506.659 59.6102 506.323 59.9282L506.581 60.3662C506.833 60.1202 507.115 60.0002 507.439 60.0002C507.841 60.0002 508.117 60.2042 508.117 60.5402V60.9722C507.907 60.7262 507.571 60.6002 507.181 60.6002C506.707 60.6002 506.173 60.8762 506.173 61.5422C506.173 62.1842 506.707 62.5022 507.181 62.5022C507.565 62.5022 507.901 62.3642 508.117 62.1182V62.4302ZM508.117 61.7702C507.973 61.9682 507.703 62.0702 507.427 62.0702C507.073 62.0702 506.809 61.8662 506.809 61.5542C506.809 61.2362 507.073 61.0322 507.427 61.0322C507.703 61.0322 507.973 61.1342 508.117 61.3322V61.7702ZM509.312 62.0522C509.612 62.3462 510.062 62.5022 510.554 62.5022C511.334 62.5022 511.76 62.1122 511.76 61.6022C511.76 60.9182 511.142 60.7742 510.638 60.6662C510.296 60.5882 510.008 60.5102 510.008 60.2882C510.008 60.0842 510.218 59.9642 510.548 59.9642C510.908 59.9642 511.232 60.1142 511.406 60.3122L511.67 59.8682C511.406 59.6342 511.034 59.4602 510.542 59.4602C509.81 59.4602 509.402 59.8682 509.402 60.3422C509.402 60.9902 509.996 61.1222 510.494 61.2302C510.848 61.3082 511.154 61.3982 511.154 61.6502C511.154 61.8662 510.962 62.0042 510.584 62.0042C510.206 62.0042 509.804 61.8062 509.6 61.5962L509.312 62.0522ZM513.264 62.5022C513.558 62.5022 513.744 62.4242 513.858 62.3162L513.708 61.8422C513.66 61.8962 513.546 61.9442 513.426 61.9442C513.246 61.9442 513.15 61.8002 513.15 61.6022V60.0842H513.738V59.5322H513.15V58.7402H512.52V59.5322H512.04V60.0842H512.52V61.7582C512.52 62.2382 512.778 62.5022 513.264 62.5022ZM514.13 60.9782C514.13 61.8962 514.778 62.5022 515.648 62.5022C516.11 62.5022 516.536 62.3582 516.824 62.0822L516.536 61.6682C516.332 61.8722 515.996 61.9862 515.714 61.9862C515.168 61.9862 514.838 61.6262 514.79 61.1882H517.028V61.0382C517.028 60.1262 516.47 59.4602 515.6 59.4602C514.742 59.4602 514.13 60.1382 514.13 60.9782ZM515.6 59.9762C516.17 59.9762 516.404 60.4022 516.416 60.7442H514.784C514.814 60.3902 515.06 59.9762 515.6 59.9762ZM518.938 62.0522C519.238 62.3462 519.688 62.5022 520.18 62.5022C520.96 62.5022 521.386 62.1122 521.386 61.6022C521.386 60.9182 520.768 60.7742 520.264 60.6662C519.922 60.5882 519.634 60.5102 519.634 60.2882C519.634 60.0842 519.844 59.9642 520.174 59.9642C520.534 59.9642 520.858 60.1142 521.032 60.3122L521.296 59.8682C521.032 59.6342 520.66 59.4602 520.168 59.4602C519.436 59.4602 519.028 59.8682 519.028 60.3422C519.028 60.9902 519.622 61.1222 520.12 61.2302C520.474 61.3082 520.78 61.3982 520.78 61.6502C520.78 61.8662 520.588 62.0042 520.21 62.0042C519.832 62.0042 519.43 61.8062 519.226 61.5962L518.938 62.0522ZM521.841 60.9782C521.841 61.8962 522.489 62.5022 523.359 62.5022C523.821 62.5022 524.247 62.3582 524.535 62.0822L524.247 61.6682C524.043 61.8722 523.707 61.9862 523.425 61.9862C522.879 61.9862 522.549 61.6262 522.501 61.1882H524.739V61.0382C524.739 60.1262 524.181 59.4602 523.311 59.4602C522.453 59.4602 521.841 60.1382 521.841 60.9782ZM523.311 59.9762C523.881 59.9762 524.115 60.4022 524.127 60.7442H522.495C522.525 60.3902 522.771 59.9762 523.311 59.9762ZM525.324 63.1742C525.678 63.4982 526.044 63.6062 526.536 63.6062C527.25 63.6062 528.024 63.3242 528.024 62.2802V59.5322H527.394V59.9342C527.16 59.6282 526.83 59.4602 526.464 59.4602C525.72 59.4602 525.18 60.0122 525.18 60.9482C525.18 61.9022 525.726 62.4362 526.464 62.4362C526.842 62.4362 527.172 62.2442 527.394 61.9562V62.3042C527.394 62.8982 526.95 63.0902 526.536 63.0902C526.152 63.0902 525.852 62.9882 525.618 62.7182L525.324 63.1742ZM527.394 61.4882C527.256 61.7042 526.944 61.8782 526.65 61.8782C526.152 61.8782 525.834 61.5062 525.834 60.9482C525.834 60.3902 526.152 60.0182 526.65 60.0182C526.944 60.0182 527.256 60.1922 527.394 60.4082V61.4882ZM528.841 62.4302H529.471V60.4562C529.597 60.2522 529.951 60.0722 530.215 60.0722C530.293 60.0722 530.359 60.0782 530.413 60.0902V59.4662C530.035 59.4662 529.687 59.6822 529.471 59.9582V59.5322H528.841V62.4302ZM530.741 60.9782C530.741 61.8962 531.389 62.5022 532.259 62.5022C532.721 62.5022 533.147 62.3582 533.435 62.0822L533.147 61.6682C532.943 61.8722 532.607 61.9862 532.325 61.9862C531.779 61.9862 531.449 61.6262 531.401 61.1882H533.639V61.0382C533.639 60.1262 533.081 59.4602 532.211 59.4602C531.353 59.4602 530.741 60.1382 530.741 60.9782ZM532.211 59.9762C532.781 59.9762 533.015 60.4022 533.027 60.7442H531.395C531.425 60.3902 531.671 59.9762 532.211 59.9762ZM534.225 63.1742C534.579 63.4982 534.945 63.6062 535.437 63.6062C536.151 63.6062 536.925 63.3242 536.925 62.2802V59.5322H536.295V59.9342C536.061 59.6282 535.731 59.4602 535.365 59.4602C534.621 59.4602 534.081 60.0122 534.081 60.9482C534.081 61.9022 534.627 62.4362 535.365 62.4362C535.743 62.4362 536.073 62.2442 536.295 61.9562V62.3042C536.295 62.8982 535.851 63.0902 535.437 63.0902C535.053 63.0902 534.753 62.9882 534.519 62.7182L534.225 63.1742ZM536.295 61.4882C536.157 61.7042 535.845 61.8782 535.551 61.8782C535.053 61.8782 534.735 61.5062 534.735 60.9482C534.735 60.3902 535.053 60.0182 535.551 60.0182C535.845 60.0182 536.157 60.1922 536.295 60.4082V61.4882ZM539.511 62.4302H540.141V60.5102C540.141 59.7302 539.577 59.4602 538.935 59.4602C538.473 59.4602 538.053 59.6102 537.717 59.9282L537.975 60.3662C538.227 60.1202 538.509 60.0002 538.833 60.0002C539.235 60.0002 539.511 60.2042 539.511 60.5402V60.9722C539.301 60.7262 538.965 60.6002 538.575 60.6002C538.101 60.6002 537.567 60.8762 537.567 61.5422C537.567 62.1842 538.101 62.5022 538.575 62.5022C538.959 62.5022 539.295 62.3642 539.511 62.1182V62.4302ZM539.511 61.7702C539.367 61.9682 539.097 62.0702 538.821 62.0702C538.467 62.0702 538.203 61.8662 538.203 61.5542C538.203 61.2362 538.467 61.0322 538.821 61.0322C539.097 61.0322 539.367 61.1342 539.511 61.3322V61.7702ZM541.828 62.5022C542.122 62.5022 542.308 62.4242 542.422 62.3162L542.272 61.8422C542.224 61.8962 542.11 61.9442 541.99 61.9442C541.81 61.9442 541.714 61.8002 541.714 61.6022V60.0842H542.302V59.5322H541.714V58.7402H541.084V59.5322H540.604V60.0842H541.084V61.7582C541.084 62.2382 541.342 62.5022 541.828 62.5022ZM543.186 59.0522C543.402 59.0522 543.576 58.8782 543.576 58.6622C543.576 58.4462 543.402 58.2722 543.186 58.2722C542.976 58.2722 542.796 58.4462 542.796 58.6622C542.796 58.8782 542.976 59.0522 543.186 59.0522ZM542.874 62.4302H543.504V59.5322H542.874V62.4302ZM545.629 62.5022C546.559 62.5022 547.123 61.8122 547.123 60.9782C547.123 60.1502 546.559 59.4602 545.629 59.4602C544.711 59.4602 544.141 60.1502 544.141 60.9782C544.141 61.8122 544.711 62.5022 545.629 62.5022ZM545.629 61.9442C545.095 61.9442 544.795 61.4942 544.795 60.9782C544.795 60.4682 545.095 60.0182 545.629 60.0182C546.169 60.0182 546.469 60.4682 546.469 60.9782C546.469 61.4942 546.169 61.9442 545.629 61.9442ZM549.717 62.4302H550.347V60.3902C550.347 59.7962 550.035 59.4602 549.411 59.4602C548.955 59.4602 548.583 59.7002 548.391 59.9282V59.5322H547.761V62.4302H548.391V60.4082C548.535 60.2102 548.811 60.0182 549.135 60.0182C549.489 60.0182 549.717 60.1682 549.717 60.6182V62.4302ZM503.593 69.4302H504.223V67.5102C504.223 66.7302 503.659 66.4602 503.017 66.4602C502.555 66.4602 502.135 66.6102 501.799 66.9282L502.057 67.3662C502.309 67.1202 502.591 67.0002 502.915 67.0002C503.317 67.0002 503.593 67.2042 503.593 67.5402V67.9722C503.383 67.7262 503.047 67.6002 502.657 67.6002C502.183 67.6002 501.649 67.8762 501.649 68.5422C501.649 69.1842 502.183 69.5022 502.657 69.5022C503.041 69.5022 503.377 69.3642 503.593 69.1182V69.4302ZM503.593 68.7702C503.449 68.9682 503.179 69.0702 502.903 69.0702C502.549 69.0702 502.285 68.8662 502.285 68.5542C502.285 68.2362 502.549 68.0322 502.903 68.0322C503.179 68.0322 503.449 68.1342 503.593 68.3322V68.7702ZM504.86 67.9782C504.86 68.8602 505.478 69.5022 506.36 69.5022C506.924 69.5022 507.266 69.2622 507.47 68.9862L507.056 68.6022C506.894 68.8242 506.672 68.9442 506.39 68.9442C505.862 68.9442 505.514 68.5422 505.514 67.9782C505.514 67.4142 505.862 67.0182 506.39 67.0182C506.672 67.0182 506.894 67.1322 507.056 67.3602L507.47 66.9762C507.266 66.7002 506.924 66.4602 506.36 66.4602C505.478 66.4602 504.86 67.1022 504.86 67.9782ZM507.843 67.9782C507.843 68.8602 508.461 69.5022 509.343 69.5022C509.907 69.5022 510.249 69.2622 510.453 68.9862L510.039 68.6022C509.877 68.8242 509.655 68.9442 509.373 68.9442C508.845 68.9442 508.497 68.5422 508.497 67.9782C508.497 67.4142 508.845 67.0182 509.373 67.0182C509.655 67.0182 509.877 67.1322 510.039 67.3602L510.453 66.9762C510.249 66.7002 509.907 66.4602 509.343 66.4602C508.461 66.4602 507.843 67.1022 507.843 67.9782ZM512.313 69.5022C513.243 69.5022 513.807 68.8122 513.807 67.9782C513.807 67.1502 513.243 66.4602 512.313 66.4602C511.395 66.4602 510.825 67.1502 510.825 67.9782C510.825 68.8122 511.395 69.5022 512.313 69.5022ZM512.313 68.9442C511.779 68.9442 511.479 68.4942 511.479 67.9782C511.479 67.4682 511.779 67.0182 512.313 67.0182C512.853 67.0182 513.153 67.4682 513.153 67.9782C513.153 68.4942 512.853 68.9442 512.313 68.9442ZM514.444 69.4302H515.074V67.4562C515.2 67.2522 515.554 67.0722 515.818 67.0722C515.896 67.0722 515.962 67.0782 516.016 67.0902V66.4662C515.638 66.4662 515.29 66.6822 515.074 66.9582V66.5322H514.444V69.4302ZM518.564 69.4302H519.194V65.4282H518.564V66.9342C518.33 66.6282 517.994 66.4602 517.634 66.4602C516.884 66.4602 516.344 67.0482 516.344 67.9842C516.344 68.9382 516.89 69.5022 517.634 69.5022C518.006 69.5022 518.342 69.3222 518.564 69.0342V69.4302ZM518.564 68.5602C518.42 68.7762 518.114 68.9442 517.814 68.9442C517.316 68.9442 516.998 68.5422 516.998 67.9842C516.998 67.4202 517.316 67.0182 517.814 67.0182C518.114 67.0182 518.42 67.1922 518.564 67.4082V68.5602ZM520.323 66.0522C520.539 66.0522 520.713 65.8782 520.713 65.6622C520.713 65.4462 520.539 65.2722 520.323 65.2722C520.113 65.2722 519.933 65.4462 519.933 65.6622C519.933 65.8782 520.113 66.0522 520.323 66.0522ZM520.011 69.4302H520.641V66.5322H520.011V69.4302ZM523.414 69.4302H524.044V67.3902C524.044 66.7962 523.732 66.4602 523.108 66.4602C522.652 66.4602 522.28 66.7002 522.088 66.9282V66.5322H521.458V69.4302H522.088V67.4082C522.232 67.2102 522.508 67.0182 522.832 67.0182C523.186 67.0182 523.414 67.1682 523.414 67.6182V69.4302ZM524.826 70.1742C525.18 70.4982 525.546 70.6062 526.038 70.6062C526.752 70.6062 527.526 70.3242 527.526 69.2802V66.5322H526.896V66.9342C526.662 66.6282 526.332 66.4602 525.966 66.4602C525.222 66.4602 524.682 67.0122 524.682 67.9482C524.682 68.9022 525.228 69.4362 525.966 69.4362C526.344 69.4362 526.674 69.2442 526.896 68.9562V69.3042C526.896 69.8982 526.452 70.0902 526.038 70.0902C525.654 70.0902 525.354 69.9882 525.12 69.7182L524.826 70.1742ZM526.896 68.4882C526.758 68.7042 526.446 68.8782 526.152 68.8782C525.654 68.8782 525.336 68.5062 525.336 67.9482C525.336 67.3902 525.654 67.0182 526.152 67.0182C526.446 67.0182 526.758 67.1922 526.896 67.4082V68.4882ZM530.754 69.5022C531.048 69.5022 531.234 69.4242 531.348 69.3162L531.198 68.8422C531.15 68.8962 531.036 68.9442 530.916 68.9442C530.736 68.9442 530.64 68.8002 530.64 68.6022V67.0842H531.228V66.5322H530.64V65.7402H530.01V66.5322H529.53V67.0842H530.01V68.7582C530.01 69.2382 530.268 69.5022 530.754 69.5022ZM533.108 69.5022C534.038 69.5022 534.602 68.8122 534.602 67.9782C534.602 67.1502 534.038 66.4602 533.108 66.4602C532.19 66.4602 531.62 67.1502 531.62 67.9782C531.62 68.8122 532.19 69.5022 533.108 69.5022ZM533.108 68.9442C532.574 68.9442 532.274 68.4942 532.274 67.9782C532.274 67.4682 532.574 67.0182 533.108 67.0182C533.648 67.0182 533.948 67.4682 533.948 67.9782C533.948 68.4942 533.648 68.9442 533.108 68.9442ZM536.78 69.4302H537.41V65.4282H536.78V69.4302ZM539.536 69.5022C540.466 69.5022 541.03 68.8122 541.03 67.9782C541.03 67.1502 540.466 66.4602 539.536 66.4602C538.618 66.4602 538.048 67.1502 538.048 67.9782C538.048 68.8122 538.618 69.5022 539.536 69.5022ZM539.536 68.9442C539.002 68.9442 538.702 68.4942 538.702 67.9782C538.702 67.4682 539.002 67.0182 539.536 67.0182C540.076 67.0182 540.376 67.4682 540.376 67.9782C540.376 68.4942 540.076 68.9442 539.536 68.9442ZM541.487 67.9782C541.487 68.8602 542.105 69.5022 542.987 69.5022C543.551 69.5022 543.893 69.2622 544.097 68.9862L543.683 68.6022C543.521 68.8242 543.299 68.9442 543.017 68.9442C542.489 68.9442 542.141 68.5422 542.141 67.9782C542.141 67.4142 542.489 67.0182 543.017 67.0182C543.299 67.0182 543.521 67.1322 543.683 67.3602L544.097 66.9762C543.893 66.7002 543.551 66.4602 542.987 66.4602C542.105 66.4602 541.487 67.1022 541.487 67.9782ZM546.419 69.4302H547.049V67.5102C547.049 66.7302 546.485 66.4602 545.843 66.4602C545.381 66.4602 544.961 66.6102 544.625 66.9282L544.883 67.3662C545.135 67.1202 545.417 67.0002 545.741 67.0002C546.143 67.0002 546.419 67.2042 546.419 67.5402V67.9722C546.209 67.7262 545.873 67.6002 545.483 67.6002C545.009 67.6002 544.475 67.8762 544.475 68.5422C544.475 69.1842 545.009 69.5022 545.483 69.5022C545.867 69.5022 546.203 69.3642 546.419 69.1182V69.4302ZM546.419 68.7702C546.275 68.9682 546.005 69.0702 545.729 69.0702C545.375 69.0702 545.111 68.8662 545.111 68.5542C545.111 68.2362 545.375 68.0322 545.729 68.0322C546.005 68.0322 546.275 68.1342 546.419 68.3322V68.7702ZM547.866 69.4302H548.496V65.4282H547.866V69.4302ZM550.855 69.4302H551.485V67.4562C551.611 67.2522 551.965 67.0722 552.229 67.0722C552.307 67.0722 552.373 67.0782 552.427 67.0902V66.4662C552.049 66.4662 551.701 66.6822 551.485 66.9582V66.5322H550.855V69.4302ZM554.891 69.4302H555.521V66.5322H554.891V68.5662C554.741 68.7642 554.465 68.9442 554.147 68.9442C553.793 68.9442 553.565 68.8062 553.565 68.3562V66.5322H552.935V68.5842C552.935 69.1782 553.241 69.5022 553.865 69.5022C554.321 69.5022 554.681 69.2802 554.891 69.0462V69.4302ZM556.339 69.4302H556.969V65.4282H556.339V69.4302ZM557.606 67.9782C557.606 68.8962 558.254 69.5022 559.124 69.5022C559.586 69.5022 560.012 69.3582 560.3 69.0822L560.012 68.6682C559.808 68.8722 559.472 68.9862 559.19 68.9862C558.644 68.9862 558.314 68.6262 558.266 68.1882H560.504V68.0382C560.504 67.1262 559.946 66.4602 559.076 66.4602C558.218 66.4602 557.606 67.1382 557.606 67.9782ZM559.076 66.9762C559.646 66.9762 559.88 67.4022 559.892 67.7442H558.26C558.29 67.3902 558.536 66.9762 559.076 66.9762ZM560.874 69.0522C561.174 69.3462 561.624 69.5022 562.116 69.5022C562.896 69.5022 563.322 69.1122 563.322 68.6022C563.322 67.9182 562.704 67.7742 562.2 67.6662C561.858 67.5882 561.57 67.5102 561.57 67.2882C561.57 67.0842 561.78 66.9642 562.11 66.9642C562.47 66.9642 562.794 67.1142 562.968 67.3122L563.232 66.8682C562.968 66.6342 562.596 66.4602 562.104 66.4602C561.372 66.4602 560.964 66.8682 560.964 67.3422C560.964 67.9902 561.558 68.1222 562.056 68.2302C562.41 68.3082 562.716 68.3982 562.716 68.6502C562.716 68.8662 562.524 69.0042 562.146 69.0042C561.768 69.0042 561.366 68.8062 561.162 68.5962L560.874 69.0522ZM563.86 69.0762C563.86 69.3042 564.052 69.4962 564.28 69.4962C564.508 69.4962 564.7 69.3042 564.7 69.0762C564.7 68.8482 564.508 68.6562 564.28 68.6562C564.052 68.6562 563.86 68.8482 563.86 69.0762Z" fill="#165E18"/>
<path opacity="0.2" d="M86.0703 71.287C84.9938 69.9443 78.3355 60.5854 77.1393 58.4716C75.9432 56.3579 74.4281 55.0418 74.4281 55.0418L70.5607 51.6651L68.5672 50.2161L66.2813 48.9798C66.2813 48.9798 65.218 47.1452 66.6667 47.2515C68.102 47.3446 71.491 48.4879 71.491 48.4879L67.5173 43.9945L62.5201 39.1688C62.5201 39.1688 61.6696 37.8261 62.9188 37.9192C64.1814 38.0122 65.2845 38.5839 66.4673 39.3682C67.6634 40.1526 71.491 43.8483 71.491 43.8483L69.3646 34.3431C69.3646 34.3431 68.7267 30.993 70.9062 32.6681C73.0858 34.3564 74.1225 38.2781 74.6939 39.6075C75.2654 40.9502 75.3452 43.2235 75.9565 44.8055C76.5812 46.3874 78.0696 48.4879 78.0696 48.4879L79.0531 49.9901C79.0531 49.9901 80.5682 46.2412 81.4321 44.4332C82.3092 42.6252 82.3358 41.5883 85.0736 41.1629C86.5887 40.9236 88.4626 40.6445 89.8315 40.4317C90.7883 40.2855 92.3965 39.7006 92.33 40.6179L92.3566 41.482C92.3034 42.0669 91.0807 43.0374 90.4694 43.1836C89.1271 43.5425 86.8279 44.2471 86.1767 45.1644C85.2463 46.4805 84.4489 47.2117 84.4755 48.4879C84.5021 49.7774 84.3027 51.1068 84.542 51.8247C84.7812 52.5425 86.469 54.3638 87.293 54.5499C88.117 54.7227 90.4694 54.0182 90.7086 53.3535C90.9478 52.6888 91.2934 50.8808 91.2801 49.578C91.2668 48.2752 90.9212 46.6932 91.1472 45.6829C91.3731 44.6592 92.1705 41.8542 93.6324 41.2826C95.0944 40.7109 95.719 40.7907 95.7057 41.8542C95.6924 42.931 95.3602 43.8084 95.3602 45.3239C95.3602 46.8394 95.5064 49.2589 95.9981 50.3224C96.4898 51.386 96.7025 55.1747 96.6892 56.3579C96.6759 57.5411 96.3038 59.0566 95.8253 60.2131C95.3469 61.3697 94.2438 62.6991 94.3368 64.2678C94.4298 65.8365 94.8684 66.8734 96.2639 67.4318C97.367 67.8704 107.175 69.8114 111.202 70.7951L111.269 40.6976L92.1041 25.5824L27.1816 25.1836C23.2078 25.5425 22.8357 28.3343 22.8357 29.1186V70.2501C23.1015 73.321 26.1051 73.999 26.9291 73.999H89.5524C88.0771 73.0418 86.6684 72.0315 86.0703 71.287Z" fill="#165E18"/>
<path d="M111.295 71.0211V31.8572" stroke="#165E18" stroke-width="0.8581" stroke-miterlimit="10"/>
<path d="M89.1669 73.9191H26.836C24.683 73.9191 22.9287 72.2707 22.9287 70.2367V28.7995C22.9287 26.7655 24.6697 25.1171 26.836 25.1171H95.0678L95.0412 21.3948H103.959C106.484 21.3948 108.717 22.6045 110.033 24.4524C110.033 24.4524 110.936 25.9546 111.255 27.736" stroke="#165E18" stroke-width="0.8581" stroke-miterlimit="10"/>
<path d="M10.4493 27.3771C15.668 27.3771 19.8986 23.1453 19.8986 17.9251C19.8986 12.7049 15.668 8.47314 10.4493 8.47314C5.2306 8.47314 1 12.7049 1 17.9251C1 23.1453 5.2306 27.3771 10.4493 27.3771Z" stroke="#165E18" stroke-width="0.8828"/>
<path d="M9.74457 22.4303H11.2307V12.8988H9.93034L7.51531 15.371L8.38701 16.2856L9.74457 14.8423V22.4303Z" fill="#165E18"/>
<path d="M67.1055 34.835H69.7369" stroke="#165E18" stroke-width="0.8581" stroke-miterlimit="10"/>
<path d="M80.6081 64.2146H34.3052V34.835H67.8097" stroke="#165E18" stroke-width="0.8581" stroke-miterlimit="10"/>
<path d="M72.7402 34.835H98.7225V64.2146H94.1241" stroke="#165E18" stroke-width="0.8581" stroke-miterlimit="10"/>
<path d="M84.3028 69.1999H27.5139V29.9429H75.1193" stroke="#165E18" stroke-width="0.8581" stroke-miterlimit="10"/>
<path d="M73.4048 29.9429H105.673V69.5588" stroke="#165E18" stroke-width="0.8581" stroke-miterlimit="10"/>
<path d="M28.0854 29.9429L34.8767 34.835" stroke="#165E18" stroke-width="0.8581" stroke-miterlimit="10"/>
<path d="M105.673 29.9429L98.7227 34.835" stroke="#165E18" stroke-width="0.8581" stroke-miterlimit="10"/>
<path d="M105.673 69.1998L98.7227 64.2146" stroke="#165E18" stroke-width="0.8581" stroke-miterlimit="10"/>
<path d="M34.8634 64.2146L28.0854 69.1998" stroke="#165E18" stroke-width="0.8581" stroke-miterlimit="10"/>
<path d="M95.4001 44.3933L111.295 40.6577" stroke="#165E18" stroke-width="0.8581" stroke-miterlimit="10"/>
<path d="M91.7983 25.1172L91.9445 43.4761" stroke="#165E18" stroke-width="0.8581" stroke-miterlimit="10"/>
<path d="M95.4001 44.3934L110.95 40.3786L92.144 25.5293L92.3567 42.9975C92.7953 42.9975 93.287 41.3092 94.9217 42.1999C95.5198 42.5323 95.2805 44.0743 95.0945 44.513" fill="#165E18"/>
<path d="M118.924 10.095C118.924 10.095 113.608 7.15701 112.598 6.61196C109.142 4.73751 109.023 2.87636 107.494 3.46129C107.494 3.46129 106.936 3.8867 107.029 4.35199C107.109 4.81728 108.172 6.10679 108.996 7.07725C109.86 8.08759 110.976 8.84534 110.976 8.84534" stroke="#165E18" stroke-width="0.8581" stroke-miterlimit="10"/>
<path d="M111.893 9.21757C111.893 9.21757 105.049 6.69172 103.932 6.12008C102.816 5.54844 97.8322 3.26188 97.1013 3.20871C96.8089 3.18212 96.3969 3.43471 96.4368 3.76705C96.5165 4.57798 96.9152 4.96351 97.5664 5.48197C98.4835 6.19985 99.9055 7.30324 100.557 7.71536C101.766 8.4997 105.049 9.78921 105.049 9.78921" stroke="#165E18" stroke-width="0.8581" stroke-miterlimit="10"/>
<path d="M151.99 27.6695C151.99 27.6695 141.105 16.7153 138.979 15.6252C136.852 14.5351 126.38 11.4642 123.775 11.0122C121.17 10.5602 115.096 9.09788 113.847 9.11117C112.598 9.12447 98.3638 10.3874 93.4332 10.733C92.6889 10.7862 92.3833 11.6636 92.9414 12.1289C93.4465 12.541 94.0977 12.9398 94.9084 13.1259C96.9285 13.5912 102.63 14.0299 104.557 13.4716C106.471 12.9265 113.422 14.7744 113.422 14.7744C113.422 14.7744 106.404 19.9856 106.152 20.7168C105.886 21.448 106.019 21.4214 106.139 21.8867" stroke="#165E18" stroke-width="0.8581" stroke-miterlimit="10"/>
<path d="M109.674 23.6282C110.365 22.4584 113.568 19.7198 115.309 19.3875C117.036 19.0551 117.794 19.2014 118.272 19.3875C118.751 19.5736 120.558 20.5573 120.851 21.5677C121.143 22.578 121.09 23.4953 120.226 24.3195C119.362 25.1438 115.867 26.2737 113.754 26.6327C110.405 27.191 107.973 31.1526 108.73 31.9901C109.647 33.0138 112.89 31.0064 114.126 30.6342C115.468 30.2353 120.705 29.8099 122.02 29.6238C123.336 29.4377 123.974 29.3845 124.665 29.0256C125.356 28.6799 131.709 24.7449 131.855 24.612C132.001 24.4791 133.397 23.8542 133.955 23.9872C134.513 24.1068 135.324 24.2929 136.108 25.1836C136.879 26.061 138.726 28.0152 140.494 30.8602C142.261 33.7051 143.63 36.1246 143.63 36.1246" stroke="#165E18" stroke-width="0.8581" stroke-miterlimit="10"/>
<path d="M109.368 23.6282C107.507 21.7936 104.956 21.3018 103.786 21.3682C100.464 21.2885 98.3371 21.448 95.0278 21.3682" stroke="#165E18" stroke-width="0.8581" stroke-miterlimit="10"/>
<path d="M193.426 27.449C198.498 26.2227 201.616 21.1154 200.391 16.0413C199.165 10.9673 194.059 7.84806 188.986 9.07428C183.914 10.3005 180.795 15.4079 182.021 20.4819C183.247 25.5559 188.353 28.6752 193.426 27.449Z" stroke="#165E18" stroke-width="0.8828"/>
<path d="M189.073 22.4304H193.874V21.1157H191.016C193.317 17.6575 193.846 16.6001 193.846 15.3425C193.846 13.7992 192.874 12.756 191.359 12.756C190.159 12.756 189.43 13.3419 188.844 14.3279L189.83 15.1996C190.202 14.4565 190.673 14.085 191.302 14.085C191.931 14.085 192.331 14.6566 192.331 15.3711C192.331 16.4286 192.016 17.0431 189.073 21.1872V22.4304Z" fill="#165E18"/>
<path d="M296.733 7.88818C296.733 7.88818 291.417 4.95022 290.407 4.40517C286.951 2.53073 286.832 0.669573 285.304 1.25451C285.304 1.25451 284.745 1.67991 284.838 2.1452C284.918 2.61049 285.981 3.9 286.805 4.87046C287.669 5.8808 288.786 6.63855 288.786 6.63855" stroke="#165E18" stroke-width="0.8581" stroke-miterlimit="10"/>
<path d="M289.716 7.01078C289.716 7.01078 282.871 4.48493 281.755 3.91329C280.639 3.34166 275.655 1.0551 274.924 1.00192C274.631 0.975333 274.219 1.22792 274.259 1.56027C274.339 2.3712 274.738 2.75672 275.389 3.27519C276.306 3.99306 277.728 5.09646 278.379 5.50857C279.589 6.29291 282.871 7.58242 282.871 7.58242" stroke="#165E18" stroke-width="0.8581" stroke-miterlimit="10"/>
<path d="M329.812 25.4627C329.812 25.4627 318.928 14.5085 316.801 13.4184C314.675 12.3283 304.202 9.25742 301.597 8.80542C298.992 8.35343 292.919 6.89109 291.669 6.90439C290.42 6.91768 276.186 8.16731 271.256 8.51295C270.511 8.56613 270.206 9.44353 270.764 9.90882C271.256 10.3209 271.92 10.7197 272.718 10.9059C274.738 11.3712 280.439 11.8099 282.366 11.2515C284.28 10.7065 291.231 12.5543 291.231 12.5543C291.231 12.5543 284.214 17.7655 283.961 18.4967C283.828 18.8556 284.001 20.3579 284.214 21.8468" stroke="#165E18" stroke-width="0.8581" stroke-miterlimit="10"/>
<path d="M287.922 23.7079C287.908 22.8571 287.762 21.6075 288.44 20.4376C289.131 19.2677 291.39 17.5262 293.118 17.1939C294.846 16.8615 295.603 17.0078 296.082 17.1939C296.56 17.38 298.368 18.3637 298.66 19.3741C298.952 20.3844 298.899 21.3017 298.035 22.1259C297.172 22.9502 293.676 24.0801 291.563 24.4391C288.214 24.9974 285.782 28.959 286.539 29.7965C287.456 30.8202 290.699 28.8128 291.935 28.4406C293.278 28.0417 298.514 27.6163 299.83 27.4302C301.145 27.2441 301.783 27.1909 302.474 26.832C303.165 26.4863 309.518 22.5513 309.664 22.4184C309.81 22.2855 311.206 21.6606 311.764 21.7936C312.322 21.9132 313.133 22.0993 313.917 22.99C314.688 23.8674 316.535 25.8216 318.303 28.6666C320.071 31.5115 321.439 33.931 321.439 33.931" stroke="#165E18" stroke-width="0.8581" stroke-miterlimit="10"/>
<path d="M278.406 34.7153H217.789V62.38H278.406V34.7153Z" stroke="#165E18" stroke-width="0.8581" stroke-miterlimit="10"/>
<path d="M284.945 30.1289H211.397V67.0728H284.945V30.1289Z" stroke="#165E18" stroke-width="0.8581" stroke-miterlimit="10"/>
<path d="M289.251 25.1969C288.015 23.482 285.702 22.0596 283.336 22.0596H274.95L274.977 25.5692H210.772C208.739 25.5692 207.104 27.1246 207.104 29.0389V68.03C207.104 69.9444 208.752 71.4998 210.772 71.4998H286.579C288.613 71.4998 290.247 69.9444 290.247 68.03L289.968 29.3314" stroke="#165E18" stroke-width="0.8581" stroke-miterlimit="10"/>
<path d="M211.397 30.1289L217.789 34.7153" stroke="#165E18" stroke-width="0.8581" stroke-miterlimit="10"/>
<path d="M284.945 30.1289L278.406 34.7153" stroke="#165E18" stroke-width="0.8581" stroke-miterlimit="10"/>
<path d="M284.945 67.0596L278.406 62.3801" stroke="#165E18" stroke-width="0.8581" stroke-miterlimit="10"/>
<path d="M206.705 43.4229L191.275 46.2811C191.275 46.6134 192.153 49.126 192.153 49.126L207.516 70.3431L208.034 70.7419L210.054 71.4332L268.239 71.0876L268.77 66.9664L206.705 43.4229Z" fill="#165E18"/>
<path d="M191.727 46.4539C191.302 46.64 182.743 48.4613 182.172 48.9133C181.6 49.3653 179.195 56.7434 179.195 56.7434C179.195 56.7434 175.234 51.7449 175.101 50.0167C174.969 48.2885 172.696 43.8217 171.606 42.3461C171.168 41.7611 170.596 41.3623 170.051 41.0964C169.44 40.7907 168.749 41.3357 168.948 41.9472C170.264 46.0418 173.812 57.9399 174.211 58.9502C174.61 59.9605 177.919 64.3874 179.195 66.3416C180.457 68.2958 186.69 75.7272 188.378 77.0964C189.003 77.6016 192.312 79.0639 196.193 80.6991" stroke="#165E18" stroke-width="0.8581" stroke-miterlimit="10"/>
<path d="M176.789 62.739C176.789 62.739 172.39 59.4155 171.553 58.7774C168.722 56.6105 167.008 57.1157 167.021 55.6932C167.021 55.6932 167.22 55.1083 167.672 55.0152C168.124 54.9222 169.626 55.3609 170.782 55.7065C171.978 56.0655 173.028 56.7301 173.028 56.7301" stroke="#165E18" stroke-width="0.8581" stroke-miterlimit="10"/>
<path d="M173.733 57.3948C173.733 57.3948 169.161 52.6622 168.27 51.9443C167.38 51.2397 163.685 47.9694 163.393 47.3845C163.273 47.1452 163.366 46.7463 163.672 46.6666C164.429 46.4672 164.908 46.6533 165.599 47.0122C166.556 47.5174 168.018 48.3017 168.603 48.6873C169.706 49.4051 171.898 51.572 171.898 51.572" stroke="#165E18" stroke-width="0.8581" stroke-miterlimit="10"/>
<path d="M190.97 49.2323C190.199 49.4982 186.225 50.9605 185.401 51.9044C184.564 52.8482 183.74 55.2411 184.006 56.7566C184.272 58.2589 184.657 58.8305 184.976 59.1496C185.308 59.4819 186.784 60.6119 187.794 60.5188C188.804 60.4258 189.601 60.0801 190.066 59.1097C190.531 58.1392 190.398 54.9487 190.026 53.1274C189.428 50.2426 192.206 46.9723 193.216 47.3047C194.439 47.7035 193.694 50.9871 193.774 52.1038C193.854 53.3268 195.196 57.6872 195.462 58.8039C195.728 59.9206 195.887 60.4657 195.794 61.1304C195.701 61.8083 194.239 68.2293 194.173 68.3888C194.106 68.5484 194 69.8778 194.292 70.2899C194.585 70.702 195.023 71.3002 196.073 71.6326C197.123 71.9649 199.502 72.8024 202.639 73.3076" stroke="#165E18" stroke-width="0.8581" stroke-miterlimit="10"/>
<path d="M91.7451 40.0993C91.2667 40.2721 83.6248 41.1761 82.9603 41.6281C82.2958 42.0801 79.0929 49.9501 79.0929 49.9501C79.0929 49.9501 75.1856 44.2204 75.1723 42.3327C75.159 40.4449 73.0459 35.4065 71.9694 33.7182C71.5441 33.0535 70.946 32.5749 70.3878 32.2426C69.7499 31.8703 68.9525 32.4021 69.1253 33.0934C70.2283 37.6532 73.1522 50.8807 73.511 52.0107C73.8699 53.1406 77.1259 58.1923 78.3486 60.4124C79.5713 62.6325 85.7645 71.1805 87.4923 72.7891C88.5156 73.733 96.6359 77.7743 103.122 80.9117" stroke="#165E18" stroke-width="0.8581" stroke-miterlimit="10"/>
<path d="M75.9831 56.3179C75.9831 56.3179 71.4511 52.3829 70.6005 51.6251C67.69 49.0594 65.7762 49.4981 65.9091 47.9427C65.9091 47.9427 66.1749 47.3179 66.6666 47.2514C67.1584 47.1849 68.7798 47.7566 70.0025 48.2219C71.2783 48.7004 72.3681 49.4981 72.3681 49.4981" stroke="#165E18" stroke-width="0.8581" stroke-miterlimit="10"/>
<path d="M73.0725 50.2691C73.0725 50.2691 68.4608 44.7787 67.5571 43.9412C66.6534 43.1037 62.8657 39.275 62.5999 38.6236C62.4935 38.3578 62.6264 37.9191 62.9587 37.8526C63.796 37.6798 64.3143 37.9324 65.032 38.3711C66.0287 38.9826 67.5571 39.953 68.1684 40.405C69.3114 41.2691 71.5309 43.7817 71.5309 43.7817" stroke="#165E18" stroke-width="0.8581" stroke-miterlimit="10"/>
<path d="M92.5028 42.5986C91.6389 42.8379 87.2 44.154 86.2165 45.1111C85.2331 46.0816 84.1433 48.634 84.316 50.2958C84.4888 51.9575 84.8609 52.5956 85.1932 52.9811C85.5255 53.3667 87.0405 54.6961 88.1569 54.6695C89.26 54.6429 90.1637 54.3105 90.7485 53.3002C91.3333 52.2766 91.4529 48.7936 91.1871 46.7729C90.7618 43.5823 94.0445 40.219 95.121 40.6577C96.4234 41.1894 95.3469 44.7123 95.3336 45.9221C95.3203 47.2515 96.45 52.117 96.636 53.3534C96.8221 54.5897 96.9683 55.1879 96.8221 55.9191C96.6759 56.6503 94.5628 63.5498 94.4697 63.7094C94.3767 63.8822 94.1641 65.3312 94.4564 65.7965C94.7488 66.2618 95.1741 66.9398 96.2905 67.3918C97.4069 67.8305 100.211 68.442 103.613 69.2131C107.002 69.9841 116.704 71.8984 116.704 71.8984" stroke="#165E18" stroke-width="0.8581" stroke-miterlimit="10"/>
</svg>
